<?xml version="1.0" encoding="utf-8" standalone="no"?>
<!DOCTYPE svg PUBLIC "-//W3C//DTD SVG 1.1//EN"
  "http://www.w3.org/Graphics/SVG/1.1/DTD/svg11.dtd">
<!-- Created with matplotlib (https://matplotlib.org/) -->
<svg height="345.6pt" version="1.1" viewBox="0 0 460.8 345.6" width="460.8pt" xmlns="http://www.w3.org/2000/svg" xmlns:xlink="http://www.w3.org/1999/xlink">
 <metadata>
  <rdf:RDF xmlns:cc="http://creativecommons.org/ns#" xmlns:dc="http://purl.org/dc/elements/1.1/" xmlns:rdf="http://www.w3.org/1999/02/22-rdf-syntax-ns#">
   <cc:Work>
    <dc:type rdf:resource="http://purl.org/dc/dcmitype/StillImage"/>
    <dc:date>2021-04-26T03:04:15.752439</dc:date>
    <dc:format>image/svg+xml</dc:format>
    <dc:creator>
     <cc:Agent>
      <dc:title>Matplotlib v3.3.4, https://matplotlib.org/</dc:title>
     </cc:Agent>
    </dc:creator>
   </cc:Work>
  </rdf:RDF>
 </metadata>
 <defs>
  <style type="text/css">*{stroke-linecap:butt;stroke-linejoin:round;}</style>
 </defs>
 <g id="figure_1">
  <g id="patch_1">
   <path d="M 0 345.6 
L 460.8 345.6 
L 460.8 0 
L 0 0 
z
" style="fill:#ffffff;"/>
  </g>
  <g id="axes_1">
   <g id="patch_2">
    <path d="M 57.6 307.584 
L 414.72 307.584 
L 414.72 41.472 
L 57.6 41.472 
z
" style="fill:#ffffff;"/>
   </g>
   <g id="matplotlib.axis_1">
    <g id="xtick_1">
     <g id="line2d_1">
      <defs>
       <path d="M 0 0 
L 0 3.5 
" id="m9cd1decbe2" style="stroke:#000000;stroke-width:0.8;"/>
      </defs>
      <g>
       <use style="stroke:#000000;stroke-width:0.8;" x="73.832727" xlink:href="#m9cd1decbe2" y="307.584"/>
      </g>
     </g>
     <g id="text_1">
      <!-- 0.0 -->
      <g transform="translate(65.881165 322.182437)scale(0.1 -0.1)">
       <defs>
        <path d="M 31.78125 66.40625 
Q 24.171875 66.40625 20.328125 58.90625 
Q 16.5 51.421875 16.5 36.375 
Q 16.5 21.390625 20.328125 13.890625 
Q 24.171875 6.390625 31.78125 6.390625 
Q 39.453125 6.390625 43.28125 13.890625 
Q 47.125 21.390625 47.125 36.375 
Q 47.125 51.421875 43.28125 58.90625 
Q 39.453125 66.40625 31.78125 66.40625 
z
M 31.78125 74.21875 
Q 44.046875 74.21875 50.515625 64.515625 
Q 56.984375 54.828125 56.984375 36.375 
Q 56.984375 17.96875 50.515625 8.265625 
Q 44.046875 -1.421875 31.78125 -1.421875 
Q 19.53125 -1.421875 13.0625 8.265625 
Q 6.59375 17.96875 6.59375 36.375 
Q 6.59375 54.828125 13.0625 64.515625 
Q 19.53125 74.21875 31.78125 74.21875 
z
" id="DejaVuSans-48"/>
        <path d="M 10.6875 12.40625 
L 21 12.40625 
L 21 0 
L 10.6875 0 
z
" id="DejaVuSans-46"/>
       </defs>
       <use xlink:href="#DejaVuSans-48"/>
       <use x="63.623047" xlink:href="#DejaVuSans-46"/>
       <use x="95.410156" xlink:href="#DejaVuSans-48"/>
      </g>
     </g>
    </g>
    <g id="xtick_2">
     <g id="line2d_2">
      <g>
       <use style="stroke:#000000;stroke-width:0.8;" x="138.763636" xlink:href="#m9cd1decbe2" y="307.584"/>
      </g>
     </g>
     <g id="text_2">
      <!-- 0.2 -->
      <g transform="translate(130.812074 322.182437)scale(0.1 -0.1)">
       <defs>
        <path d="M 19.1875 8.296875 
L 53.609375 8.296875 
L 53.609375 0 
L 7.328125 0 
L 7.328125 8.296875 
Q 12.9375 14.109375 22.625 23.890625 
Q 32.328125 33.6875 34.8125 36.53125 
Q 39.546875 41.84375 41.421875 45.53125 
Q 43.3125 49.21875 43.3125 52.78125 
Q 43.3125 58.59375 39.234375 62.25 
Q 35.15625 65.921875 28.609375 65.921875 
Q 23.96875 65.921875 18.8125 64.3125 
Q 13.671875 62.703125 7.8125 59.421875 
L 7.8125 69.390625 
Q 13.765625 71.78125 18.9375 73 
Q 24.125 74.21875 28.421875 74.21875 
Q 39.75 74.21875 46.484375 68.546875 
Q 53.21875 62.890625 53.21875 53.421875 
Q 53.21875 48.921875 51.53125 44.890625 
Q 49.859375 40.875 45.40625 35.40625 
Q 44.1875 33.984375 37.640625 27.21875 
Q 31.109375 20.453125 19.1875 8.296875 
z
" id="DejaVuSans-50"/>
       </defs>
       <use xlink:href="#DejaVuSans-48"/>
       <use x="63.623047" xlink:href="#DejaVuSans-46"/>
       <use x="95.410156" xlink:href="#DejaVuSans-50"/>
      </g>
     </g>
    </g>
    <g id="xtick_3">
     <g id="line2d_3">
      <g>
       <use style="stroke:#000000;stroke-width:0.8;" x="203.694545" xlink:href="#m9cd1decbe2" y="307.584"/>
      </g>
     </g>
     <g id="text_3">
      <!-- 0.4 -->
      <g transform="translate(195.742983 322.182437)scale(0.1 -0.1)">
       <defs>
        <path d="M 37.796875 64.3125 
L 12.890625 25.390625 
L 37.796875 25.390625 
z
M 35.203125 72.90625 
L 47.609375 72.90625 
L 47.609375 25.390625 
L 58.015625 25.390625 
L 58.015625 17.1875 
L 47.609375 17.1875 
L 47.609375 0 
L 37.796875 0 
L 37.796875 17.1875 
L 4.890625 17.1875 
L 4.890625 26.703125 
z
" id="DejaVuSans-52"/>
       </defs>
       <use xlink:href="#DejaVuSans-48"/>
       <use x="63.623047" xlink:href="#DejaVuSans-46"/>
       <use x="95.410156" xlink:href="#DejaVuSans-52"/>
      </g>
     </g>
    </g>
    <g id="xtick_4">
     <g id="line2d_4">
      <g>
       <use style="stroke:#000000;stroke-width:0.8;" x="268.625455" xlink:href="#m9cd1decbe2" y="307.584"/>
      </g>
     </g>
     <g id="text_4">
      <!-- 0.6 -->
      <g transform="translate(260.673892 322.182437)scale(0.1 -0.1)">
       <defs>
        <path d="M 33.015625 40.375 
Q 26.375 40.375 22.484375 35.828125 
Q 18.609375 31.296875 18.609375 23.390625 
Q 18.609375 15.53125 22.484375 10.953125 
Q 26.375 6.390625 33.015625 6.390625 
Q 39.65625 6.390625 43.53125 10.953125 
Q 47.40625 15.53125 47.40625 23.390625 
Q 47.40625 31.296875 43.53125 35.828125 
Q 39.65625 40.375 33.015625 40.375 
z
M 52.59375 71.296875 
L 52.59375 62.3125 
Q 48.875 64.0625 45.09375 64.984375 
Q 41.3125 65.921875 37.59375 65.921875 
Q 27.828125 65.921875 22.671875 59.328125 
Q 17.53125 52.734375 16.796875 39.40625 
Q 19.671875 43.65625 24.015625 45.921875 
Q 28.375 48.1875 33.59375 48.1875 
Q 44.578125 48.1875 50.953125 41.515625 
Q 57.328125 34.859375 57.328125 23.390625 
Q 57.328125 12.15625 50.6875 5.359375 
Q 44.046875 -1.421875 33.015625 -1.421875 
Q 20.359375 -1.421875 13.671875 8.265625 
Q 6.984375 17.96875 6.984375 36.375 
Q 6.984375 53.65625 15.1875 63.9375 
Q 23.390625 74.21875 37.203125 74.21875 
Q 40.921875 74.21875 44.703125 73.484375 
Q 48.484375 72.75 52.59375 71.296875 
z
" id="DejaVuSans-54"/>
       </defs>
       <use xlink:href="#DejaVuSans-48"/>
       <use x="63.623047" xlink:href="#DejaVuSans-46"/>
       <use x="95.410156" xlink:href="#DejaVuSans-54"/>
      </g>
     </g>
    </g>
    <g id="xtick_5">
     <g id="line2d_5">
      <g>
       <use style="stroke:#000000;stroke-width:0.8;" x="333.556364" xlink:href="#m9cd1decbe2" y="307.584"/>
      </g>
     </g>
     <g id="text_5">
      <!-- 0.8 -->
      <g transform="translate(325.604801 322.182437)scale(0.1 -0.1)">
       <defs>
        <path d="M 31.78125 34.625 
Q 24.75 34.625 20.71875 30.859375 
Q 16.703125 27.09375 16.703125 20.515625 
Q 16.703125 13.921875 20.71875 10.15625 
Q 24.75 6.390625 31.78125 6.390625 
Q 38.8125 6.390625 42.859375 10.171875 
Q 46.921875 13.96875 46.921875 20.515625 
Q 46.921875 27.09375 42.890625 30.859375 
Q 38.875 34.625 31.78125 34.625 
z
M 21.921875 38.8125 
Q 15.578125 40.375 12.03125 44.71875 
Q 8.5 49.078125 8.5 55.328125 
Q 8.5 64.0625 14.71875 69.140625 
Q 20.953125 74.21875 31.78125 74.21875 
Q 42.671875 74.21875 48.875 69.140625 
Q 55.078125 64.0625 55.078125 55.328125 
Q 55.078125 49.078125 51.53125 44.71875 
Q 48 40.375 41.703125 38.8125 
Q 48.828125 37.15625 52.796875 32.3125 
Q 56.78125 27.484375 56.78125 20.515625 
Q 56.78125 9.90625 50.3125 4.234375 
Q 43.84375 -1.421875 31.78125 -1.421875 
Q 19.734375 -1.421875 13.25 4.234375 
Q 6.78125 9.90625 6.78125 20.515625 
Q 6.78125 27.484375 10.78125 32.3125 
Q 14.796875 37.15625 21.921875 38.8125 
z
M 18.3125 54.390625 
Q 18.3125 48.734375 21.84375 45.5625 
Q 25.390625 42.390625 31.78125 42.390625 
Q 38.140625 42.390625 41.71875 45.5625 
Q 45.3125 48.734375 45.3125 54.390625 
Q 45.3125 60.0625 41.71875 63.234375 
Q 38.140625 66.40625 31.78125 66.40625 
Q 25.390625 66.40625 21.84375 63.234375 
Q 18.3125 60.0625 18.3125 54.390625 
z
" id="DejaVuSans-56"/>
       </defs>
       <use xlink:href="#DejaVuSans-48"/>
       <use x="63.623047" xlink:href="#DejaVuSans-46"/>
       <use x="95.410156" xlink:href="#DejaVuSans-56"/>
      </g>
     </g>
    </g>
    <g id="xtick_6">
     <g id="line2d_6">
      <g>
       <use style="stroke:#000000;stroke-width:0.8;" x="398.487273" xlink:href="#m9cd1decbe2" y="307.584"/>
      </g>
     </g>
     <g id="text_6">
      <!-- 1.0 -->
      <g transform="translate(390.53571 322.182437)scale(0.1 -0.1)">
       <defs>
        <path d="M 12.40625 8.296875 
L 28.515625 8.296875 
L 28.515625 63.921875 
L 10.984375 60.40625 
L 10.984375 69.390625 
L 28.421875 72.90625 
L 38.28125 72.90625 
L 38.28125 8.296875 
L 54.390625 8.296875 
L 54.390625 0 
L 12.40625 0 
z
" id="DejaVuSans-49"/>
       </defs>
       <use xlink:href="#DejaVuSans-49"/>
       <use x="63.623047" xlink:href="#DejaVuSans-46"/>
       <use x="95.410156" xlink:href="#DejaVuSans-48"/>
      </g>
     </g>
    </g>
    <g id="text_7">
     <!-- False Positive Rate (Positive label: 1) -->
     <g transform="translate(144.794375 335.860562)scale(0.1 -0.1)">
      <defs>
       <path d="M 9.8125 72.90625 
L 51.703125 72.90625 
L 51.703125 64.59375 
L 19.671875 64.59375 
L 19.671875 43.109375 
L 48.578125 43.109375 
L 48.578125 34.8125 
L 19.671875 34.8125 
L 19.671875 0 
L 9.8125 0 
z
" id="DejaVuSans-70"/>
       <path d="M 34.28125 27.484375 
Q 23.390625 27.484375 19.1875 25 
Q 14.984375 22.515625 14.984375 16.5 
Q 14.984375 11.71875 18.140625 8.90625 
Q 21.296875 6.109375 26.703125 6.109375 
Q 34.1875 6.109375 38.703125 11.40625 
Q 43.21875 16.703125 43.21875 25.484375 
L 43.21875 27.484375 
z
M 52.203125 31.203125 
L 52.203125 0 
L 43.21875 0 
L 43.21875 8.296875 
Q 40.140625 3.328125 35.546875 0.953125 
Q 30.953125 -1.421875 24.3125 -1.421875 
Q 15.921875 -1.421875 10.953125 3.296875 
Q 6 8.015625 6 15.921875 
Q 6 25.140625 12.171875 29.828125 
Q 18.359375 34.515625 30.609375 34.515625 
L 43.21875 34.515625 
L 43.21875 35.40625 
Q 43.21875 41.609375 39.140625 45 
Q 35.0625 48.390625 27.6875 48.390625 
Q 23 48.390625 18.546875 47.265625 
Q 14.109375 46.140625 10.015625 43.890625 
L 10.015625 52.203125 
Q 14.9375 54.109375 19.578125 55.046875 
Q 24.21875 56 28.609375 56 
Q 40.484375 56 46.34375 49.84375 
Q 52.203125 43.703125 52.203125 31.203125 
z
" id="DejaVuSans-97"/>
       <path d="M 9.421875 75.984375 
L 18.40625 75.984375 
L 18.40625 0 
L 9.421875 0 
z
" id="DejaVuSans-108"/>
       <path d="M 44.28125 53.078125 
L 44.28125 44.578125 
Q 40.484375 46.53125 36.375 47.5 
Q 32.28125 48.484375 27.875 48.484375 
Q 21.1875 48.484375 17.84375 46.4375 
Q 14.5 44.390625 14.5 40.28125 
Q 14.5 37.15625 16.890625 35.375 
Q 19.28125 33.59375 26.515625 31.984375 
L 29.59375 31.296875 
Q 39.15625 29.25 43.1875 25.515625 
Q 47.21875 21.78125 47.21875 15.09375 
Q 47.21875 7.46875 41.1875 3.015625 
Q 35.15625 -1.421875 24.609375 -1.421875 
Q 20.21875 -1.421875 15.453125 -0.5625 
Q 10.6875 0.296875 5.421875 2 
L 5.421875 11.28125 
Q 10.40625 8.6875 15.234375 7.390625 
Q 20.0625 6.109375 24.8125 6.109375 
Q 31.15625 6.109375 34.5625 8.28125 
Q 37.984375 10.453125 37.984375 14.40625 
Q 37.984375 18.0625 35.515625 20.015625 
Q 33.0625 21.96875 24.703125 23.78125 
L 21.578125 24.515625 
Q 13.234375 26.265625 9.515625 29.90625 
Q 5.8125 33.546875 5.8125 39.890625 
Q 5.8125 47.609375 11.28125 51.796875 
Q 16.75 56 26.8125 56 
Q 31.78125 56 36.171875 55.265625 
Q 40.578125 54.546875 44.28125 53.078125 
z
" id="DejaVuSans-115"/>
       <path d="M 56.203125 29.59375 
L 56.203125 25.203125 
L 14.890625 25.203125 
Q 15.484375 15.921875 20.484375 11.0625 
Q 25.484375 6.203125 34.421875 6.203125 
Q 39.59375 6.203125 44.453125 7.46875 
Q 49.3125 8.734375 54.109375 11.28125 
L 54.109375 2.78125 
Q 49.265625 0.734375 44.1875 -0.34375 
Q 39.109375 -1.421875 33.890625 -1.421875 
Q 20.796875 -1.421875 13.15625 6.1875 
Q 5.515625 13.8125 5.515625 26.8125 
Q 5.515625 40.234375 12.765625 48.109375 
Q 20.015625 56 32.328125 56 
Q 43.359375 56 49.78125 48.890625 
Q 56.203125 41.796875 56.203125 29.59375 
z
M 47.21875 32.234375 
Q 47.125 39.59375 43.09375 43.984375 
Q 39.0625 48.390625 32.421875 48.390625 
Q 24.90625 48.390625 20.390625 44.140625 
Q 15.875 39.890625 15.1875 32.171875 
z
" id="DejaVuSans-101"/>
       <path id="DejaVuSans-32"/>
       <path d="M 19.671875 64.796875 
L 19.671875 37.40625 
L 32.078125 37.40625 
Q 38.96875 37.40625 42.71875 40.96875 
Q 46.484375 44.53125 46.484375 51.125 
Q 46.484375 57.671875 42.71875 61.234375 
Q 38.96875 64.796875 32.078125 64.796875 
z
M 9.8125 72.90625 
L 32.078125 72.90625 
Q 44.34375 72.90625 50.609375 67.359375 
Q 56.890625 61.8125 56.890625 51.125 
Q 56.890625 40.328125 50.609375 34.8125 
Q 44.34375 29.296875 32.078125 29.296875 
L 19.671875 29.296875 
L 19.671875 0 
L 9.8125 0 
z
" id="DejaVuSans-80"/>
       <path d="M 30.609375 48.390625 
Q 23.390625 48.390625 19.1875 42.75 
Q 14.984375 37.109375 14.984375 27.296875 
Q 14.984375 17.484375 19.15625 11.84375 
Q 23.34375 6.203125 30.609375 6.203125 
Q 37.796875 6.203125 41.984375 11.859375 
Q 46.1875 17.53125 46.1875 27.296875 
Q 46.1875 37.015625 41.984375 42.703125 
Q 37.796875 48.390625 30.609375 48.390625 
z
M 30.609375 56 
Q 42.328125 56 49.015625 48.375 
Q 55.71875 40.765625 55.71875 27.296875 
Q 55.71875 13.875 49.015625 6.21875 
Q 42.328125 -1.421875 30.609375 -1.421875 
Q 18.84375 -1.421875 12.171875 6.21875 
Q 5.515625 13.875 5.515625 27.296875 
Q 5.515625 40.765625 12.171875 48.375 
Q 18.84375 56 30.609375 56 
z
" id="DejaVuSans-111"/>
       <path d="M 9.421875 54.6875 
L 18.40625 54.6875 
L 18.40625 0 
L 9.421875 0 
z
M 9.421875 75.984375 
L 18.40625 75.984375 
L 18.40625 64.59375 
L 9.421875 64.59375 
z
" id="DejaVuSans-105"/>
       <path d="M 18.3125 70.21875 
L 18.3125 54.6875 
L 36.8125 54.6875 
L 36.8125 47.703125 
L 18.3125 47.703125 
L 18.3125 18.015625 
Q 18.3125 11.328125 20.140625 9.421875 
Q 21.96875 7.515625 27.59375 7.515625 
L 36.8125 7.515625 
L 36.8125 0 
L 27.59375 0 
Q 17.1875 0 13.234375 3.875 
Q 9.28125 7.765625 9.28125 18.015625 
L 9.28125 47.703125 
L 2.6875 47.703125 
L 2.6875 54.6875 
L 9.28125 54.6875 
L 9.28125 70.21875 
z
" id="DejaVuSans-116"/>
       <path d="M 2.984375 54.6875 
L 12.5 54.6875 
L 29.59375 8.796875 
L 46.6875 54.6875 
L 56.203125 54.6875 
L 35.6875 0 
L 23.484375 0 
z
" id="DejaVuSans-118"/>
       <path d="M 44.390625 34.1875 
Q 47.5625 33.109375 50.5625 29.59375 
Q 53.5625 26.078125 56.59375 19.921875 
L 66.609375 0 
L 56 0 
L 46.6875 18.703125 
Q 43.0625 26.03125 39.671875 28.421875 
Q 36.28125 30.8125 30.421875 30.8125 
L 19.671875 30.8125 
L 19.671875 0 
L 9.8125 0 
L 9.8125 72.90625 
L 32.078125 72.90625 
Q 44.578125 72.90625 50.734375 67.671875 
Q 56.890625 62.453125 56.890625 51.90625 
Q 56.890625 45.015625 53.6875 40.46875 
Q 50.484375 35.9375 44.390625 34.1875 
z
M 19.671875 64.796875 
L 19.671875 38.921875 
L 32.078125 38.921875 
Q 39.203125 38.921875 42.84375 42.21875 
Q 46.484375 45.515625 46.484375 51.90625 
Q 46.484375 58.296875 42.84375 61.546875 
Q 39.203125 64.796875 32.078125 64.796875 
z
" id="DejaVuSans-82"/>
       <path d="M 31 75.875 
Q 24.46875 64.65625 21.28125 53.65625 
Q 18.109375 42.671875 18.109375 31.390625 
Q 18.109375 20.125 21.3125 9.0625 
Q 24.515625 -2 31 -13.1875 
L 23.1875 -13.1875 
Q 15.875 -1.703125 12.234375 9.375 
Q 8.59375 20.453125 8.59375 31.390625 
Q 8.59375 42.28125 12.203125 53.3125 
Q 15.828125 64.359375 23.1875 75.875 
z
" id="DejaVuSans-40"/>
       <path d="M 48.6875 27.296875 
Q 48.6875 37.203125 44.609375 42.84375 
Q 40.53125 48.484375 33.40625 48.484375 
Q 26.265625 48.484375 22.1875 42.84375 
Q 18.109375 37.203125 18.109375 27.296875 
Q 18.109375 17.390625 22.1875 11.75 
Q 26.265625 6.109375 33.40625 6.109375 
Q 40.53125 6.109375 44.609375 11.75 
Q 48.6875 17.390625 48.6875 27.296875 
z
M 18.109375 46.390625 
Q 20.953125 51.265625 25.265625 53.625 
Q 29.59375 56 35.59375 56 
Q 45.5625 56 51.78125 48.09375 
Q 58.015625 40.1875 58.015625 27.296875 
Q 58.015625 14.40625 51.78125 6.484375 
Q 45.5625 -1.421875 35.59375 -1.421875 
Q 29.59375 -1.421875 25.265625 0.953125 
Q 20.953125 3.328125 18.109375 8.203125 
L 18.109375 0 
L 9.078125 0 
L 9.078125 75.984375 
L 18.109375 75.984375 
z
" id="DejaVuSans-98"/>
       <path d="M 11.71875 12.40625 
L 22.015625 12.40625 
L 22.015625 0 
L 11.71875 0 
z
M 11.71875 51.703125 
L 22.015625 51.703125 
L 22.015625 39.3125 
L 11.71875 39.3125 
z
" id="DejaVuSans-58"/>
       <path d="M 8.015625 75.875 
L 15.828125 75.875 
Q 23.140625 64.359375 26.78125 53.3125 
Q 30.421875 42.28125 30.421875 31.390625 
Q 30.421875 20.453125 26.78125 9.375 
Q 23.140625 -1.703125 15.828125 -13.1875 
L 8.015625 -13.1875 
Q 14.5 -2 17.703125 9.0625 
Q 20.90625 20.125 20.90625 31.390625 
Q 20.90625 42.671875 17.703125 53.65625 
Q 14.5 64.65625 8.015625 75.875 
z
" id="DejaVuSans-41"/>
      </defs>
      <use xlink:href="#DejaVuSans-70"/>
      <use x="48.394531" xlink:href="#DejaVuSans-97"/>
      <use x="109.673828" xlink:href="#DejaVuSans-108"/>
      <use x="137.457031" xlink:href="#DejaVuSans-115"/>
      <use x="189.556641" xlink:href="#DejaVuSans-101"/>
      <use x="251.080078" xlink:href="#DejaVuSans-32"/>
      <use x="282.867188" xlink:href="#DejaVuSans-80"/>
      <use x="339.544922" xlink:href="#DejaVuSans-111"/>
      <use x="400.726562" xlink:href="#DejaVuSans-115"/>
      <use x="452.826172" xlink:href="#DejaVuSans-105"/>
      <use x="480.609375" xlink:href="#DejaVuSans-116"/>
      <use x="519.818359" xlink:href="#DejaVuSans-105"/>
      <use x="547.601562" xlink:href="#DejaVuSans-118"/>
      <use x="606.78125" xlink:href="#DejaVuSans-101"/>
      <use x="668.304688" xlink:href="#DejaVuSans-32"/>
      <use x="700.091797" xlink:href="#DejaVuSans-82"/>
      <use x="767.324219" xlink:href="#DejaVuSans-97"/>
      <use x="828.603516" xlink:href="#DejaVuSans-116"/>
      <use x="867.8125" xlink:href="#DejaVuSans-101"/>
      <use x="929.335938" xlink:href="#DejaVuSans-32"/>
      <use x="961.123047" xlink:href="#DejaVuSans-40"/>
      <use x="1000.136719" xlink:href="#DejaVuSans-80"/>
      <use x="1056.814453" xlink:href="#DejaVuSans-111"/>
      <use x="1117.996094" xlink:href="#DejaVuSans-115"/>
      <use x="1170.095703" xlink:href="#DejaVuSans-105"/>
      <use x="1197.878906" xlink:href="#DejaVuSans-116"/>
      <use x="1237.087891" xlink:href="#DejaVuSans-105"/>
      <use x="1264.871094" xlink:href="#DejaVuSans-118"/>
      <use x="1324.050781" xlink:href="#DejaVuSans-101"/>
      <use x="1385.574219" xlink:href="#DejaVuSans-32"/>
      <use x="1417.361328" xlink:href="#DejaVuSans-108"/>
      <use x="1445.144531" xlink:href="#DejaVuSans-97"/>
      <use x="1506.423828" xlink:href="#DejaVuSans-98"/>
      <use x="1569.900391" xlink:href="#DejaVuSans-101"/>
      <use x="1631.423828" xlink:href="#DejaVuSans-108"/>
      <use x="1659.207031" xlink:href="#DejaVuSans-58"/>
      <use x="1692.898438" xlink:href="#DejaVuSans-32"/>
      <use x="1724.685547" xlink:href="#DejaVuSans-49"/>
      <use x="1788.308594" xlink:href="#DejaVuSans-41"/>
     </g>
    </g>
   </g>
   <g id="matplotlib.axis_2">
    <g id="ytick_1">
     <g id="line2d_7">
      <defs>
       <path d="M 0 0 
L -3.5 0 
" id="m786d893b24" style="stroke:#000000;stroke-width:0.8;"/>
      </defs>
      <g>
       <use style="stroke:#000000;stroke-width:0.8;" x="57.6" xlink:href="#m786d893b24" y="295.488"/>
      </g>
     </g>
     <g id="text_8">
      <!-- 0.0 -->
      <g transform="translate(34.696875 299.287219)scale(0.1 -0.1)">
       <use xlink:href="#DejaVuSans-48"/>
       <use x="63.623047" xlink:href="#DejaVuSans-46"/>
       <use x="95.410156" xlink:href="#DejaVuSans-48"/>
      </g>
     </g>
    </g>
    <g id="ytick_2">
     <g id="line2d_8">
      <g>
       <use style="stroke:#000000;stroke-width:0.8;" x="57.6" xlink:href="#m786d893b24" y="247.104"/>
      </g>
     </g>
     <g id="text_9">
      <!-- 0.2 -->
      <g transform="translate(34.696875 250.903219)scale(0.1 -0.1)">
       <use xlink:href="#DejaVuSans-48"/>
       <use x="63.623047" xlink:href="#DejaVuSans-46"/>
       <use x="95.410156" xlink:href="#DejaVuSans-50"/>
      </g>
     </g>
    </g>
    <g id="ytick_3">
     <g id="line2d_9">
      <g>
       <use style="stroke:#000000;stroke-width:0.8;" x="57.6" xlink:href="#m786d893b24" y="198.72"/>
      </g>
     </g>
     <g id="text_10">
      <!-- 0.4 -->
      <g transform="translate(34.696875 202.519219)scale(0.1 -0.1)">
       <use xlink:href="#DejaVuSans-48"/>
       <use x="63.623047" xlink:href="#DejaVuSans-46"/>
       <use x="95.410156" xlink:href="#DejaVuSans-52"/>
      </g>
     </g>
    </g>
    <g id="ytick_4">
     <g id="line2d_10">
      <g>
       <use style="stroke:#000000;stroke-width:0.8;" x="57.6" xlink:href="#m786d893b24" y="150.336"/>
      </g>
     </g>
     <g id="text_11">
      <!-- 0.6 -->
      <g transform="translate(34.696875 154.135219)scale(0.1 -0.1)">
       <use xlink:href="#DejaVuSans-48"/>
       <use x="63.623047" xlink:href="#DejaVuSans-46"/>
       <use x="95.410156" xlink:href="#DejaVuSans-54"/>
      </g>
     </g>
    </g>
    <g id="ytick_5">
     <g id="line2d_11">
      <g>
       <use style="stroke:#000000;stroke-width:0.8;" x="57.6" xlink:href="#m786d893b24" y="101.952"/>
      </g>
     </g>
     <g id="text_12">
      <!-- 0.8 -->
      <g transform="translate(34.696875 105.751219)scale(0.1 -0.1)">
       <use xlink:href="#DejaVuSans-48"/>
       <use x="63.623047" xlink:href="#DejaVuSans-46"/>
       <use x="95.410156" xlink:href="#DejaVuSans-56"/>
      </g>
     </g>
    </g>
    <g id="ytick_6">
     <g id="line2d_12">
      <g>
       <use style="stroke:#000000;stroke-width:0.8;" x="57.6" xlink:href="#m786d893b24" y="53.568"/>
      </g>
     </g>
     <g id="text_13">
      <!-- 1.0 -->
      <g transform="translate(34.696875 57.367219)scale(0.1 -0.1)">
       <use xlink:href="#DejaVuSans-49"/>
       <use x="63.623047" xlink:href="#DejaVuSans-46"/>
       <use x="95.410156" xlink:href="#DejaVuSans-48"/>
      </g>
     </g>
    </g>
    <g id="text_14">
     <!-- True Positive Rate (Positive label: 1) -->
     <g transform="translate(28.617187 263.956906)rotate(-90)scale(0.1 -0.1)">
      <defs>
       <path d="M -0.296875 72.90625 
L 61.375 72.90625 
L 61.375 64.59375 
L 35.5 64.59375 
L 35.5 0 
L 25.59375 0 
L 25.59375 64.59375 
L -0.296875 64.59375 
z
" id="DejaVuSans-84"/>
       <path d="M 41.109375 46.296875 
Q 39.59375 47.171875 37.8125 47.578125 
Q 36.03125 48 33.890625 48 
Q 26.265625 48 22.1875 43.046875 
Q 18.109375 38.09375 18.109375 28.8125 
L 18.109375 0 
L 9.078125 0 
L 9.078125 54.6875 
L 18.109375 54.6875 
L 18.109375 46.1875 
Q 20.953125 51.171875 25.484375 53.578125 
Q 30.03125 56 36.53125 56 
Q 37.453125 56 38.578125 55.875 
Q 39.703125 55.765625 41.0625 55.515625 
z
" id="DejaVuSans-114"/>
       <path d="M 8.5 21.578125 
L 8.5 54.6875 
L 17.484375 54.6875 
L 17.484375 21.921875 
Q 17.484375 14.15625 20.5 10.265625 
Q 23.53125 6.390625 29.59375 6.390625 
Q 36.859375 6.390625 41.078125 11.03125 
Q 45.3125 15.671875 45.3125 23.6875 
L 45.3125 54.6875 
L 54.296875 54.6875 
L 54.296875 0 
L 45.3125 0 
L 45.3125 8.40625 
Q 42.046875 3.421875 37.71875 1 
Q 33.40625 -1.421875 27.6875 -1.421875 
Q 18.265625 -1.421875 13.375 4.4375 
Q 8.5 10.296875 8.5 21.578125 
z
M 31.109375 56 
z
" id="DejaVuSans-117"/>
      </defs>
      <use xlink:href="#DejaVuSans-84"/>
      <use x="46.333984" xlink:href="#DejaVuSans-114"/>
      <use x="87.447266" xlink:href="#DejaVuSans-117"/>
      <use x="150.826172" xlink:href="#DejaVuSans-101"/>
      <use x="212.349609" xlink:href="#DejaVuSans-32"/>
      <use x="244.136719" xlink:href="#DejaVuSans-80"/>
      <use x="300.814453" xlink:href="#DejaVuSans-111"/>
      <use x="361.996094" xlink:href="#DejaVuSans-115"/>
      <use x="414.095703" xlink:href="#DejaVuSans-105"/>
      <use x="441.878906" xlink:href="#DejaVuSans-116"/>
      <use x="481.087891" xlink:href="#DejaVuSans-105"/>
      <use x="508.871094" xlink:href="#DejaVuSans-118"/>
      <use x="568.050781" xlink:href="#DejaVuSans-101"/>
      <use x="629.574219" xlink:href="#DejaVuSans-32"/>
      <use x="661.361328" xlink:href="#DejaVuSans-82"/>
      <use x="728.59375" xlink:href="#DejaVuSans-97"/>
      <use x="789.873047" xlink:href="#DejaVuSans-116"/>
      <use x="829.082031" xlink:href="#DejaVuSans-101"/>
      <use x="890.605469" xlink:href="#DejaVuSans-32"/>
      <use x="922.392578" xlink:href="#DejaVuSans-40"/>
      <use x="961.40625" xlink:href="#DejaVuSans-80"/>
      <use x="1018.083984" xlink:href="#DejaVuSans-111"/>
      <use x="1079.265625" xlink:href="#DejaVuSans-115"/>
      <use x="1131.365234" xlink:href="#DejaVuSans-105"/>
      <use x="1159.148438" xlink:href="#DejaVuSans-116"/>
      <use x="1198.357422" xlink:href="#DejaVuSans-105"/>
      <use x="1226.140625" xlink:href="#DejaVuSans-118"/>
      <use x="1285.320312" xlink:href="#DejaVuSans-101"/>
      <use x="1346.84375" xlink:href="#DejaVuSans-32"/>
      <use x="1378.630859" xlink:href="#DejaVuSans-108"/>
      <use x="1406.414062" xlink:href="#DejaVuSans-97"/>
      <use x="1467.693359" xlink:href="#DejaVuSans-98"/>
      <use x="1531.169922" xlink:href="#DejaVuSans-101"/>
      <use x="1592.693359" xlink:href="#DejaVuSans-108"/>
      <use x="1620.476562" xlink:href="#DejaVuSans-58"/>
      <use x="1654.167969" xlink:href="#DejaVuSans-32"/>
      <use x="1685.955078" xlink:href="#DejaVuSans-49"/>
      <use x="1749.578125" xlink:href="#DejaVuSans-41"/>
     </g>
    </g>
   </g>
   <g id="line2d_13">
    <path clip-path="url(#p51c0860b6c)" d="M 73.832727 295.488 
L 73.943977 295.259793 
L 73.999602 295.259793 
L 74.083039 294.844872 
L 74.138664 294.761887 
L 74.194289 294.512934 
L 74.249914 294.512934 
L 74.333351 293.911298 
L 74.361164 293.911298 
L 74.416788 293.226678 
L 74.500226 293.185185 
L 74.555851 292.79101 
L 74.6671 292.770264 
L 74.750538 292.396835 
L 74.77835 292.396835 
L 74.861787 291.981913 
L 74.8896 291.981913 
L 74.973037 291.193562 
L 75.028662 291.131324 
L 75.112099 290.903117 
L 75.223349 290.820133 
L 75.306786 290.425957 
L 75.334599 290.425957 
L 75.418036 289.720591 
L 75.445848 289.720591 
L 75.529286 288.870002 
L 75.557098 288.870002 
L 75.612723 288.475826 
L 75.723973 288.434334 
L 75.80741 287.39703 
L 75.863035 287.376284 
L 75.946472 286.587933 
L 75.974285 286.587933 
L 76.057722 285.820328 
L 76.085534 285.820328 
L 76.168972 285.509137 
L 76.196784 285.509137 
L 76.280221 285.031977 
L 76.308034 285.031977 
L 76.391471 284.181388 
L 76.447096 284.098404 
L 76.530533 283.64199 
L 76.613971 283.579752 
L 76.697408 283.206323 
L 76.72522 283.206323 
L 76.780845 282.749909 
L 76.864283 282.749909 
L 76.94772 282.37648 
L 76.975532 282.37648 
L 77.031157 282.086034 
L 77.114595 281.982304 
L 77.198032 281.52589 
L 77.281469 281.505144 
L 77.364906 280.965746 
L 77.392719 280.965746 
L 77.476156 280.239634 
L 77.503969 280.239634 
L 77.587406 279.928443 
L 77.615218 279.928443 
L 77.698656 279.389045 
L 77.726468 279.389045 
L 77.809905 278.911885 
L 77.893343 278.808154 
L 77.97678 278.476217 
L 78.004592 278.476217 
L 78.08803 278.102788 
L 78.171467 277.999057 
L 78.254904 277.169214 
L 78.310529 277.148468 
L 78.393966 276.775039 
L 78.421779 276.775039 
L 78.505216 276.090418 
L 78.588654 275.986688 
L 78.672091 275.571766 
L 78.727716 275.509528 
L 78.811153 275.094607 
L 78.838965 275.094607 
L 78.922403 274.140287 
L 78.950215 274.140287 
L 79.033652 273.829096 
L 79.11709 273.829096 
L 79.200527 273.019999 
L 79.256152 272.999253 
L 79.339589 272.729554 
L 79.423027 272.625824 
L 79.506464 272.335378 
L 79.534276 272.335378 
L 79.617714 271.11136 
L 79.645526 271.11136 
L 79.728963 270.405993 
L 79.812401 270.302263 
L 79.895838 269.430928 
L 79.951463 269.430928 
L 80.0349 268.912276 
L 80.062713 268.912276 
L 80.14615 268.621831 
L 80.229587 268.5181 
L 80.313024 268.186163 
L 80.340837 268.186163 
L 80.424274 267.439304 
L 80.452087 267.439304 
L 80.535524 266.796176 
L 80.591149 266.754684 
L 80.646774 265.904095 
L 80.730211 265.800364 
L 80.813648 265.426935 
L 80.869273 265.406189 
L 80.95271 264.929029 
L 80.980523 264.929029 
L 81.06396 263.60128 
L 81.119585 263.518296 
L 81.203022 263.041136 
L 81.28646 262.958152 
L 81.369897 262.273531 
L 81.425522 262.211293 
L 81.508959 262.003832 
L 81.592396 261.920848 
L 81.648021 261.713387 
L 81.731459 261.651149 
L 81.759271 261.132497 
L 81.870521 261.111751 
L 81.953958 260.613845 
L 82.009583 260.551607 
L 82.09302 259.763256 
L 82.148645 259.74251 
L 82.20427 259.306842 
L 82.259895 259.306842 
L 82.343332 258.974905 
L 82.426769 258.954159 
L 82.510207 258.601476 
L 82.538019 258.601476 
L 82.621457 257.999839 
L 82.704894 257.958347 
L 82.788331 257.315219 
L 82.843956 257.252981 
L 82.927393 256.900297 
L 83.010831 256.796567 
L 83.094268 256.381645 
L 83.12208 256.381645 
L 83.205518 256.174185 
L 83.261142 256.0912 
L 83.34458 255.489564 
L 83.400205 255.489564 
L 83.483642 254.970912 
L 83.511454 254.970912 
L 83.594892 254.701213 
L 83.650517 254.638975 
L 83.733954 254.431514 
L 83.789579 254.34853 
L 83.873016 253.995847 
L 83.928641 253.954355 
L 83.984266 253.539433 
L 84.178953 253.456449 
L 84.26239 252.792574 
L 84.290203 252.792574 
L 84.37364 251.941985 
L 84.401452 251.941985 
L 84.48489 251.672286 
L 84.540514 251.589302 
L 84.623952 251.153634 
L 84.707389 251.132888 
L 84.790826 250.48976 
L 84.874264 250.469014 
L 84.957701 250.282299 
L 85.013326 250.178569 
L 85.041138 250.0126 
L 85.124576 250.0126 
L 85.208013 249.618424 
L 85.29145 249.53544 
L 85.374888 248.85082 
L 85.4027 248.85082 
L 85.458325 248.601867 
L 85.541762 248.539629 
L 85.625199 248.37366 
L 85.680824 248.26993 
L 85.764262 247.855008 
L 85.847699 247.772024 
L 85.931136 247.253372 
L 86.014573 247.21188 
L 86.070198 246.796958 
L 86.237073 246.73472 
L 86.32051 246.319798 
L 86.348323 246.319798 
L 86.43176 245.884131 
L 86.459572 245.884131 
L 86.54301 245.510701 
L 86.598635 245.406971 
L 86.682072 244.992049 
L 86.737697 244.929811 
L 86.821134 244.411159 
L 87.043634 244.348921 
L 87.127071 243.892507 
L 87.154883 243.892507 
L 87.238321 243.436094 
L 87.293945 243.415348 
L 87.377383 242.751473 
L 87.433008 242.730727 
L 87.516445 242.461028 
L 87.599882 242.39879 
L 87.68332 242.170583 
L 87.711132 242.170583 
L 87.766757 241.776408 
L 87.822382 241.776408 
L 87.905819 241.257756 
L 87.933631 241.257756 
L 88.017069 240.905072 
L 88.072694 240.842834 
L 88.156131 240.697612 
L 88.239568 240.593881 
L 88.323006 240.137467 
L 88.37863 240.095975 
L 88.462068 239.660308 
L 88.48988 239.660308 
L 88.573317 239.183148 
L 88.656755 239.12091 
L 88.71238 238.975687 
L 88.795817 238.871957 
L 88.879254 237.813907 
L 88.907067 237.813907 
L 88.990504 236.984064 
L 89.046129 236.901079 
L 89.129566 236.486158 
L 89.157379 236.486158 
L 89.240816 236.091983 
L 89.296441 236.05049 
L 89.379878 235.448854 
L 89.435503 235.428108 
L 89.51894 235.054679 
L 89.574565 235.033933 
L 89.63019 234.722741 
L 89.685815 234.722741 
L 89.769252 234.058867 
L 89.852689 233.955137 
L 89.936127 233.768422 
L 89.991752 233.685438 
L 90.075189 233.208278 
L 90.214251 233.104547 
L 90.297688 232.66888 
L 90.381126 232.627388 
L 90.464563 232.19172 
L 90.492375 232.19172 
L 90.575813 231.984259 
L 90.65925 231.880529 
L 90.742687 231.735306 
L 90.937374 231.631576 
L 91.020812 231.299639 
L 91.159874 231.195908 
L 91.243311 230.780987 
L 91.326748 230.739495 
L 91.382373 230.469796 
L 91.493623 230.386811 
L 91.57706 229.888906 
L 91.604873 229.888906 
L 91.68831 229.225031 
L 91.716123 229.225031 
L 91.79956 228.81011 
L 91.855185 228.706379 
L 91.938622 228.519665 
L 91.994247 228.43668 
L 92.077684 228.146235 
L 92.105497 228.146235 
L 92.188934 227.918028 
L 92.216746 227.918028 
L 92.300184 227.648329 
L 92.383621 227.544599 
L 92.467058 227.337138 
L 92.578308 227.233408 
L 92.633933 226.942963 
L 92.71737 226.880724 
L 92.772995 226.673264 
L 92.884245 226.590279 
L 92.967682 225.988643 
L 93.023307 225.905659 
L 93.078932 225.698198 
L 93.190182 225.615214 
L 93.273619 225.407753 
L 93.357056 225.324769 
L 93.412681 224.909847 
L 93.579556 224.806117 
L 93.662993 224.349703 
L 93.690805 224.349703 
L 93.74643 223.665083 
L 93.85768 223.602844 
L 93.885492 223.395384 
L 94.024555 223.291653 
L 94.107992 223.001208 
L 94.191429 223.001208 
L 94.274866 222.524048 
L 94.386116 222.46181 
L 94.441741 221.797936 
L 94.497366 221.797936 
L 94.580803 221.237792 
L 94.831115 221.134061 
L 94.914552 220.968093 
L 94.99799 220.885108 
L 95.081427 220.594663 
L 95.10924 220.594663 
L 95.192677 220.034519 
L 95.248302 219.993027 
L 95.331739 218.872739 
L 95.359551 218.872739 
L 95.442989 218.354087 
L 95.526426 218.271103 
L 95.609863 218.001404 
L 95.665488 217.897673 
L 95.721113 217.607228 
L 95.80455 217.503498 
L 95.887988 217.109322 
L 95.9158 217.109322 
L 95.999237 216.735893 
L 96.054862 216.715147 
L 96.1383 216.279479 
L 96.249549 216.175749 
L 96.332987 216.030526 
L 96.388611 215.968288 
L 96.472049 215.615605 
L 96.583299 215.511874 
L 96.666736 214.993223 
L 96.805798 214.910238 
L 96.889235 214.640539 
L 96.94486 214.619793 
L 97.028297 214.329348 
L 97.083922 214.329348 
L 97.16736 214.163379 
L 97.250797 214.059649 
L 97.334234 213.935173 
L 97.417672 213.831442 
L 97.501109 213.561743 
L 97.584546 213.520251 
L 97.667983 213.063837 
L 97.695796 213.063837 
L 97.779233 212.752646 
L 97.86267 212.669662 
L 97.946108 212.192502 
L 98.029545 212.15101 
L 98.112982 211.507882 
L 98.168607 211.404151 
L 98.252045 211.113706 
L 98.335482 211.051468 
L 98.418919 210.574308 
L 98.557981 210.491324 
L 98.585794 210.325355 
L 98.752668 210.221625 
L 98.808293 210.055656 
L 98.947355 209.972672 
L 99.030793 209.184321 
L 99.142042 209.101337 
L 99.22548 208.790146 
L 99.308917 208.707161 
L 99.392354 208.561939 
L 99.447979 208.520447 
L 99.531417 208.022541 
L 99.614854 207.91881 
L 99.698291 207.462397 
L 99.865166 207.358666 
L 99.892978 207.275682 
L 100.25454 207.171952 
L 100.337977 206.943745 
L 100.421414 206.902253 
L 100.504852 206.6533 
L 100.616101 206.570315 
L 100.699539 206.466585 
L 100.727351 206.466585 
L 100.782976 206.300616 
L 100.949851 206.217632 
L 101.033288 206.07241 
L 101.144538 205.989425 
L 101.227975 205.678234 
L 101.311412 205.574504 
L 101.39485 205.367043 
L 101.450475 205.367043 
L 101.533912 205.01436 
L 101.561724 205.01436 
L 101.645162 204.578692 
L 101.672974 204.578692 
L 101.728599 204.122278 
L 101.839849 204.018548 
L 101.923286 203.873325 
L 101.978911 203.873325 
L 102.062348 203.396166 
L 102.090161 203.396166 
L 102.173598 202.939752 
L 102.31266 202.89826 
L 102.368285 202.711545 
L 102.562972 202.607815 
L 102.646409 202.31737 
L 102.813284 202.213639 
L 102.896721 201.819464 
L 102.924534 201.819464 
L 103.007971 201.632749 
L 103.174845 201.549765 
L 103.23047 201.383796 
L 103.313908 201.300812 
L 103.397345 201.155589 
L 103.425157 201.155589 
L 103.508595 200.616191 
L 103.56422 200.616191 
L 103.647657 200.139032 
L 103.870156 200.056047 
L 103.953594 199.848587 
L 104.009218 199.744856 
L 104.092656 199.62038 
L 104.203906 199.516649 
L 104.287343 198.977251 
L 104.37078 198.894267 
L 104.454217 198.624568 
L 104.48203 198.624568 
L 104.565467 198.354869 
L 104.621092 198.292631 
L 104.704529 198.002186 
L 104.787967 197.960694 
L 104.871404 197.711741 
L 104.954841 197.670249 
L 105.038279 197.421296 
L 105.093903 197.359057 
L 105.177341 196.881898 
L 105.28859 196.778167 
L 105.316403 196.466976 
L 105.594527 196.363246 
L 105.62234 196.218023 
L 105.844839 196.155785 
L 105.928276 195.803102 
L 106.039526 195.740863 
L 106.122963 195.429672 
L 106.206401 195.367434 
L 106.289838 195.242958 
L 106.317651 195.242958 
L 106.317651 195.097735 
L 106.456713 195.014751 
L 106.54015 194.413114 
L 106.734837 194.309384 
L 106.818274 193.74924 
L 107.096399 193.687002 
L 107.179836 193.355065 
L 107.207648 193.355065 
L 107.291086 193.126858 
L 107.346711 193.043873 
L 107.402335 192.545968 
L 107.45796 192.545968 
L 107.513585 192.317761 
L 107.597022 192.317761 
L 107.68046 192.068808 
L 107.708272 192.068808 
L 107.79171 191.695378 
L 107.875147 191.591648 
L 107.958584 191.321949 
L 108.125459 191.218219 
L 108.181084 190.969266 
L 108.236708 190.969266 
L 108.320146 190.47136 
L 108.375771 190.36763 
L 108.375771 190.346883 
L 108.48702 190.346883 
L 108.542645 190.014946 
L 108.59827 190.014946 
L 108.653895 189.600025 
L 108.765145 189.496294 
L 108.848582 189.039881 
L 108.876394 189.039881 
L 108.959832 188.645705 
L 109.043269 188.624959 
L 109.126706 188.334514 
L 109.182331 188.272276 
L 109.182331 188.210038 
L 109.293581 188.210038 
L 109.377018 187.8781 
L 109.51608 187.77437 
L 109.599518 187.442433 
L 109.84983 187.359448 
L 109.933267 187.131242 
L 110.044517 187.048257 
L 110.127954 186.903035 
L 110.239204 186.82005 
L 110.322641 186.571098 
L 110.489516 186.529605 
L 110.572953 186.384383 
L 110.712015 186.301399 
L 110.795452 185.699762 
L 110.823265 185.699762 
L 110.87889 185.367825 
L 110.962327 185.367825 
L 111.045764 184.97365 
L 111.184827 184.869919 
L 111.212639 184.745443 
L 111.407326 184.703951 
L 111.462951 184.579474 
L 111.574201 184.475744 
L 111.657638 184.268283 
L 111.768888 184.164553 
L 111.824513 184.102314 
L 111.935762 183.998584 
L 112.0192 183.874108 
L 112.130449 183.853361 
L 112.213887 183.625155 
L 112.325136 183.583662 
L 112.408574 183.044264 
L 112.436386 183.044264 
L 112.519823 182.712327 
L 112.603261 182.650089 
L 112.658886 182.525613 
L 112.82576 182.421882 
L 112.881385 182.318152 
L 112.964822 182.27666 
L 113.04826 181.944722 
L 113.159509 181.861738 
L 113.159509 181.820246 
L 113.354196 181.778754 
L 113.437634 181.612785 
L 113.576696 181.550547 
L 113.604508 181.405324 
L 113.771383 181.32234 
L 113.799195 181.177118 
L 113.938258 181.135625 
L 114.021695 180.969657 
L 114.105132 180.886672 
L 114.160757 180.803688 
L 114.411069 180.699958 
L 114.494506 180.616974 
L 114.577944 180.533989 
L 114.605756 180.347275 
L 114.717006 180.326528 
L 114.800443 180.098322 
L 114.88388 180.036083 
L 114.967318 179.6834 
L 115.022942 179.600416 
L 115.10638 179.268479 
L 115.356692 179.185494 
L 115.440129 178.874303 
L 115.467941 178.874303 
L 115.551379 178.666842 
L 115.634816 178.563112 
L 115.718253 178.355651 
L 115.940753 178.251921 
L 116.02419 178.04446 
L 116.302314 177.94073 
L 116.385752 177.816253 
L 116.469189 177.733269 
L 116.552626 177.546554 
L 116.663876 177.442824 
L 116.747313 177.256109 
L 116.802938 177.152379 
L 116.858563 176.965664 
L 116.969813 176.88268 
L 117.05325 176.737457 
L 117.192312 176.654473 
L 117.27575 176.364028 
L 117.303562 176.364028 
L 117.386999 175.4512 
L 117.498249 175.368216 
L 117.581686 175.285232 
L 117.720749 175.222994 
L 117.804186 175.057025 
L 117.887623 174.974041 
L 117.943248 174.621357 
L 118.165748 174.579865 
L 118.249185 174.413897 
L 118.30481 174.310166 
L 118.388247 174.019721 
L 118.527309 173.915991 
L 118.610746 173.70853 
L 118.749809 173.6048 
L 118.805434 173.438831 
L 119.000121 173.335101 
L 119.055745 173.065402 
L 119.194808 172.961671 
L 119.278245 172.733464 
L 119.389495 172.65048 
L 119.472932 172.339289 
L 119.528557 172.235559 
L 119.556369 172.17332 
L 119.723244 172.17332 
L 119.806681 171.550938 
L 120.056993 171.447208 
L 120.056993 171.426462 
L 120.307305 171.322731 
L 120.390742 171.11527 
L 120.585429 171.01154 
L 120.668867 170.783333 
L 120.780116 170.679603 
L 120.863554 170.513634 
L 120.946991 170.472142 
L 121.030428 170.326919 
L 121.141678 170.264681 
L 121.197303 170.119459 
L 121.308553 170.036474 
L 121.39199 169.974236 
L 121.614489 169.870506 
L 121.670114 169.559315 
L 121.892614 169.455584 
L 121.976051 169.248123 
L 122.087301 169.165139 
L 122.170738 168.999171 
L 122.365425 168.89544 
L 122.448862 168.79171 
L 122.560112 168.687979 
L 122.615737 168.584249 
L 122.893861 168.542757 
L 122.977299 168.397534 
L 123.088548 168.31455 
L 123.144173 168.252312 
L 123.283235 168.21082 
L 123.366673 167.961867 
L 123.45011 167.920375 
L 123.505735 167.692168 
L 123.616985 167.62993 
L 123.700422 167.484707 
L 123.783859 167.380977 
L 123.839484 167.277246 
L 124.034171 167.173516 
L 124.117608 166.883071 
L 124.228858 166.77934 
L 124.284483 166.592626 
L 124.395733 166.551134 
L 124.423545 166.322927 
L 124.562607 166.322927 
L 124.646045 166.09472 
L 124.729482 166.053228 
L 124.757294 165.928751 
L 125.007606 165.825021 
L 125.091044 165.679798 
L 125.230106 165.596814 
L 125.313543 165.389353 
L 125.480418 165.285623 
L 125.563855 164.93294 
L 125.73073 164.849955 
L 125.73073 164.787717 
L 125.925417 164.704733 
L 126.008854 164.580256 
L 126.175729 164.476526 
L 126.259166 164.144589 
L 126.314791 164.144589 
L 126.398228 163.771159 
L 126.509478 163.729667 
L 126.592915 163.522206 
L 126.787602 163.418476 
L 126.871039 163.211015 
L 126.954477 163.107285 
L 127.037914 162.982808 
L 127.204789 162.899824 
L 127.288226 162.796094 
L 127.399476 162.713109 
L 127.482913 162.484902 
L 127.761037 162.381172 
L 127.816662 162.277442 
L 127.983537 162.173711 
L 128.066974 162.090727 
L 128.150411 161.986997 
L 128.206036 161.841774 
L 128.317286 161.738044 
L 128.345098 161.655059 
L 128.539786 161.551329 
L 128.59541 161.426853 
L 128.734473 161.343868 
L 128.790097 161.136408 
L 128.956972 161.032677 
L 129.012597 160.970439 
L 129.123847 160.866709 
L 129.179472 160.80447 
L 129.262909 160.762978 
L 129.318534 160.514025 
L 129.541033 160.410295 
L 129.62447 160.099104 
L 129.652283 160.099104 
L 129.73572 159.870897 
L 129.902595 159.787913 
L 129.95822 159.621944 
L 130.041657 159.601198 
L 130.125094 159.352245 
L 130.180719 159.310753 
L 130.236344 159.144784 
L 130.319781 159.041054 
L 130.403219 158.937323 
L 130.681343 158.833593 
L 130.76478 158.605386 
L 130.87603 158.58464 
L 130.959467 158.314941 
L 131.098529 158.231957 
L 131.181967 158.086734 
L 131.376654 157.983004 
L 131.404466 157.941512 
L 131.487904 157.941512 
L 131.571341 157.651067 
L 131.877278 157.547336 
L 131.932903 157.464352 
L 132.099777 157.42286 
L 132.183214 157.215399 
L 132.322277 157.132415 
L 132.405714 157.007938 
L 132.600401 156.904208 
L 132.600401 156.883462 
L 132.906338 156.779731 
L 132.906338 156.717493 
L 133.128837 156.655255 
L 133.212274 156.510032 
L 133.295712 156.427048 
L 133.351337 156.302572 
L 133.518211 156.219587 
L 133.573836 155.99138 
L 133.685086 155.88765 
L 133.712898 155.680189 
L 133.935398 155.576459 
L 133.991023 155.514221 
L 134.157897 155.41049 
L 134.18571 155.368998 
L 134.352584 155.265268 
L 134.436022 155.223776 
L 134.547271 155.120045 
L 134.575084 155.078553 
L 134.741958 154.974823 
L 134.797583 154.933331 
L 135.020083 154.8296 
L 135.10352 154.705124 
L 135.186957 154.601393 
L 135.270395 154.165726 
L 135.409457 154.061995 
L 135.492894 153.937519 
L 135.548519 153.896027 
L 135.576331 153.750804 
L 135.715394 153.647074 
L 135.798831 153.439613 
L 135.910081 153.356629 
L 135.965705 153.273644 
L 136.076955 153.19066 
L 136.13258 153.003945 
L 136.410704 152.941707 
L 136.494142 152.7135 
L 136.577579 152.630516 
L 136.633204 152.423055 
L 136.800079 152.319325 
L 136.883516 152.153356 
L 136.966953 152.049626 
L 136.994766 152.008134 
L 137.106015 151.925149 
L 137.16164 151.821419 
L 137.411952 151.759181 
L 137.439764 151.65545 
L 137.690076 151.55172 
L 137.773514 151.427244 
L 137.996013 151.323513 
L 138.07945 151.157545 
L 138.1907 151.136799 
L 138.218513 150.97083 
L 138.468825 150.8671 
L 138.496637 150.784115 
L 138.635699 150.680385 
L 138.719136 150.618147 
L 138.886011 150.514416 
L 138.886011 150.49367 
L 139.080698 150.38994 
L 139.164135 150.244717 
L 139.386635 150.161733 
L 139.414447 149.954272 
L 139.609134 149.850542 
L 139.692572 149.684573 
L 139.776009 149.663827 
L 139.859446 149.414874 
L 140.193195 149.311144 
L 140.24882 149.22816 
L 140.415695 149.207413 
L 140.499132 148.999953 
L 140.832881 148.916968 
L 140.832881 148.875476 
L 141.083193 148.771746 
L 141.166631 148.543539 
L 141.38913 148.439809 
L 141.444755 148.336078 
L 141.61163 148.253094 
L 141.695067 148.107871 
L 142.001004 148.024887 
L 142.084441 147.900411 
L 142.195691 147.79668 
L 142.279128 147.672204 
L 142.334753 147.651458 
L 142.41819 147.423251 
L 142.446003 147.423251 
L 142.52944 147.091314 
L 142.668502 147.008329 
L 142.724127 146.904599 
L 142.918814 146.800869 
L 142.918814 146.759376 
L 143.141314 146.717884 
L 143.224751 146.468931 
L 143.336001 146.406693 
L 143.419438 146.302963 
L 143.586312 146.199232 
L 143.614125 146.15774 
L 143.808812 146.095502 
L 143.864437 146.012518 
L 144.003499 145.908787 
L 144.003499 145.888041 
L 144.170374 145.825803 
L 144.253811 145.618342 
L 144.420685 145.535358 
L 144.504123 145.431627 
L 144.615373 145.327897 
L 144.69881 145.141182 
L 144.782247 145.058198 
L 144.837872 144.912976 
L 145.004747 144.809245 
L 145.060371 144.726261 
L 145.282871 144.62253 
L 145.366308 144.539546 
L 145.533183 144.435816 
L 145.61662 144.311339 
L 145.755682 144.228355 
L 145.83912 144.166117 
L 145.922557 144.145371 
L 145.922557 144.020894 
L 146.200681 143.917164 
L 146.284119 143.83418 
L 146.423181 143.730449 
L 146.506618 143.502242 
L 146.784742 143.419258 
L 146.812555 143.253289 
L 147.229741 143.170305 
L 147.313179 142.942098 
L 147.452241 142.87986 
L 147.535678 142.610161 
L 147.925052 142.506431 
L 148.00849 142.381954 
L 148.258801 142.278224 
L 148.314426 142.19524 
L 148.592551 142.112255 
L 148.675988 141.863302 
L 148.81505 141.801064 
L 148.898487 141.614349 
L 149.148799 141.552111 
L 149.232237 141.365396 
L 149.371299 141.261666 
L 149.454736 141.178682 
L 149.621611 141.116444 
L 149.677236 140.971221 
L 149.84411 140.867491 
L 149.899735 140.784506 
L 150.038797 140.680776 
L 150.122235 140.535553 
L 150.205672 140.452569 
L 150.289109 140.390331 
L 150.400359 140.2866 
L 150.483796 140.203616 
L 150.845358 140.099886 
L 150.928795 139.913171 
L 151.067857 139.809441 
L 151.151295 139.747202 
L 151.429419 139.643472 
L 151.485044 139.518996 
L 151.707543 139.415265 
L 151.763168 139.270043 
L 152.01348 139.166312 
L 152.069105 139.02109 
L 152.347229 138.917359 
L 152.402854 138.813629 
L 152.653166 138.709899 
L 152.736603 138.419454 
L 152.93129 138.315723 
L 152.986915 138.191247 
L 153.376289 138.087516 
L 153.459727 137.96304 
L 153.598789 137.880056 
L 153.682226 137.755579 
L 153.710039 137.755579 
L 153.765663 137.568864 
L 153.988163 137.465134 
L 154.015975 137.340658 
L 154.210662 137.236927 
L 154.2941 137.112451 
L 154.433162 137.091705 
L 154.488787 136.967228 
L 154.600036 136.925736 
L 154.683474 136.718275 
L 155.045035 136.614545 
L 155.128473 136.573053 
L 155.32316 136.469322 
L 155.406597 136.386338 
L 155.545659 136.365592 
L 155.545659 136.261862 
L 155.768159 136.158131 
L 155.851596 136.075147 
L 156.046283 135.971417 
L 156.12972 135.867686 
L 156.35222 135.763956 
L 156.435657 135.680971 
L 156.574719 135.618733 
L 156.658157 135.452765 
L 156.769406 135.36978 
L 156.852844 135.26605 
L 156.936281 135.203812 
L 157.019718 135.017097 
L 157.325655 134.913367 
L 157.38128 134.851128 
L 157.520342 134.747398 
L 157.575967 134.664414 
L 157.881904 134.560683 
L 157.909716 134.477699 
L 158.048778 134.373969 
L 158.076591 134.290984 
L 158.354715 134.187254 
L 158.354715 134.166508 
L 158.577215 134.062777 
L 158.577215 134.021285 
L 158.716277 133.959047 
L 158.799714 133.813825 
L 158.938776 133.73084 
L 159.022213 133.606364 
L 159.077838 133.502633 
L 159.161276 133.419649 
L 159.272525 133.398903 
L 159.32815 133.212188 
L 159.4394 133.14995 
L 159.495025 132.963235 
L 159.661899 132.880251 
L 159.717524 132.755775 
L 159.995649 132.652044 
L 160.079086 132.46533 
L 160.190336 132.382345 
L 160.245961 132.195631 
L 160.440648 132.174884 
L 160.524085 131.946678 
L 160.57971 131.925932 
L 160.635335 131.780709 
L 160.774397 131.697725 
L 160.830022 131.593994 
L 161.135959 131.490264 
L 161.219396 131.428026 
L 161.275021 131.428026 
L 161.302833 131.282803 
L 161.580957 131.179073 
L 161.636582 131.03385 
L 161.859082 130.93012 
L 161.942519 130.701913 
L 162.220643 130.618929 
L 162.304081 130.515198 
L 162.52658 130.432214 
L 162.582205 130.307738 
L 162.832517 130.204007 
L 162.915954 130.079531 
L 162.999392 129.9758 
L 163.055016 129.87207 
L 163.194079 129.76834 
L 163.277516 129.706101 
L 163.416578 129.643863 
L 163.500015 129.519387 
L 163.66689 129.415656 
L 163.750327 129.29118 
L 164.000639 129.187449 
L 164.028452 129.145957 
L 164.362201 129.042227 
L 164.417826 128.897004 
L 164.668138 128.81402 
L 164.668138 128.772528 
L 164.890637 128.668798 
L 164.974074 128.523575 
L 165.252199 128.461337 
L 165.307824 128.357606 
L 165.530323 128.274622 
L 165.585948 128.1294 
L 165.780635 128.046415 
L 165.864072 127.880447 
L 166.030947 127.776716 
L 166.086572 127.693732 
L 166.420321 127.590002 
L 166.503758 127.403287 
L 166.837508 127.299556 
L 166.837508 127.27881 
L 167.087819 127.195826 
L 167.143444 127.133588 
L 167.532818 127.07135 
L 167.588443 126.946873 
L 167.810943 126.863889 
L 167.89438 126.718666 
L 168.311567 126.614936 
L 168.339379 126.573444 
L 168.534066 126.490459 
L 168.617503 126.407475 
L 168.756566 126.324491 
L 168.81219 126.22076 
L 168.979065 126.137776 
L 169.03469 126.054792 
L 169.340627 125.951061 
L 169.424064 125.785093 
L 169.507501 125.743601 
L 169.563126 125.53614 
L 169.757813 125.43241 
L 169.785626 125.390917 
L 169.896875 125.328679 
L 169.980313 125.162711 
L 170.06375 125.05898 
L 170.119375 124.996742 
L 170.453124 124.893012 
L 170.508749 124.768535 
L 170.675623 124.664805 
L 170.675623 124.58182 
L 170.870311 124.47809 
L 170.898123 124.395106 
L 171.09281 124.291375 
L 171.148435 124.042422 
L 171.454372 123.938692 
L 171.537809 123.855708 
L 171.649059 123.751977 
L 171.676871 123.606755 
L 172.038433 123.503024 
L 172.038433 123.482278 
L 172.23312 123.378548 
L 172.288745 123.31631 
L 172.733744 123.212579 
L 172.789368 123.108849 
L 172.984056 123.005119 
L 173.067493 122.922134 
L 173.206555 122.818404 
L 173.289992 122.73542 
L 173.790616 122.631689 
L 173.874053 122.548705 
L 174.235615 122.444975 
L 174.29124 122.382736 
L 174.513739 122.279006 
L 174.569364 122.237514 
L 174.680614 122.175276 
L 174.708426 122.092291 
L 175.097801 121.988561 
L 175.125613 121.926323 
L 175.3203 121.843338 
L 175.348112 121.7811 
L 175.514987 121.718862 
L 175.598424 121.615131 
L 175.848736 121.511401 
L 175.904361 121.428417 
L 176.182485 121.324686 
L 176.210298 121.262448 
L 176.57186 121.158718 
L 176.57186 121.09648 
L 176.766547 121.054987 
L 176.766547 120.951257 
L 177.350608 120.868273 
L 177.434045 120.806034 
L 177.48967 120.806034 
L 177.573107 120.660812 
L 177.628732 120.557082 
L 177.628732 120.536335 
L 177.851232 120.432605 
L 177.906856 120.370367 
L 178.018106 120.370367 
L 178.101543 120.121414 
L 178.268418 120.017684 
L 178.351855 119.893207 
L 178.490918 119.810223 
L 178.51873 119.727238 
L 178.963729 119.665 
L 179.047166 119.519778 
L 179.214041 119.436793 
L 179.269666 119.374555 
L 179.54779 119.291571 
L 179.575602 119.18784 
L 179.937164 119.08411 
L 179.937164 119.042618 
L 180.187476 118.938888 
L 180.270913 118.897395 
L 180.4656 118.793665 
L 180.549038 118.689935 
L 180.604663 118.669189 
L 180.6881 118.50322 
L 180.966224 118.420236 
L 181.021849 118.254267 
L 181.299973 118.171283 
L 181.383411 118.067552 
L 181.578098 117.963822 
L 181.661535 117.901584 
L 182.078722 117.797853 
L 182.162159 117.569647 
L 182.273409 117.486662 
L 182.329033 117.362186 
L 182.495908 117.299948 
L 182.495908 117.237709 
L 182.774032 117.133979 
L 182.829657 117.009502 
L 183.024344 116.905772 
L 183.079969 116.86428 
L 183.219031 116.843534 
L 183.302469 116.677565 
L 183.358094 116.594581 
L 183.441531 116.449358 
L 183.77528 116.38712 
L 183.77528 116.324882 
L 183.997779 116.262644 
L 183.997779 116.179659 
L 184.303716 116.117421 
L 184.303716 116.055183 
L 184.69309 115.951453 
L 184.776528 115.847722 
L 184.859965 115.785484 
L 184.943402 115.640261 
L 185.165902 115.536531 
L 185.221527 115.474293 
L 185.388401 115.432801 
L 185.444026 115.32907 
L 185.805588 115.246086 
L 185.889025 115.100863 
L 186.0559 114.997133 
L 186.083712 114.914149 
L 186.278399 114.831164 
L 186.306212 114.706688 
L 186.667773 114.602958 
L 186.75121 114.478481 
L 186.86246 114.457735 
L 186.890273 114.312512 
L 187.08496 114.250274 
L 187.168397 114.105052 
L 187.363084 114.022067 
L 187.363084 113.980575 
L 187.669021 113.876845 
L 187.752458 113.793861 
L 188.11402 113.69013 
L 188.169645 113.627892 
L 188.392144 113.565654 
L 188.475581 113.441177 
L 188.837143 113.337447 
L 188.92058 113.275209 
L 189.282142 113.171478 
L 189.337767 113.129986 
L 189.615891 113.047002 
L 189.699329 112.901779 
L 189.894016 112.839541 
L 189.894016 112.777303 
L 190.199952 112.694318 
L 190.28339 112.590588 
L 190.589326 112.486858 
L 190.617139 112.383127 
L 190.950888 112.279397 
L 191.034325 112.217159 
L 191.340262 112.113428 
L 191.340262 112.092682 
L 191.701824 112.030444 
L 191.729636 111.926714 
L 192.11901 111.822983 
L 192.202448 111.760745 
L 192.397135 111.657015 
L 192.480572 111.594776 
L 192.842134 111.511792 
L 192.897758 111.345824 
L 193.454007 111.262839 
L 193.509632 111.159109 
L 193.787756 111.138363 
L 193.787756 111.034632 
L 193.982443 110.951648 
L 194.010256 110.88941 
L 194.483067 110.806426 
L 194.566505 110.723441 
L 194.594317 110.723441 
L 194.677754 110.51598 
L 194.844629 110.41225 
L 194.928066 110.370758 
L 195.094941 110.267028 
L 195.150566 110.204789 
L 195.53994 110.101059 
L 195.623377 109.997329 
L 195.762439 109.914344 
L 195.818064 109.810614 
L 196.012751 109.706883 
L 196.096188 109.623899 
L 196.207438 109.520169 
L 196.290875 109.395692 
L 196.596812 109.291962 
L 196.68025 109.208978 
L 196.930561 109.105247 
L 196.930561 109.084501 
L 197.264311 109.001517 
L 197.347748 108.814802 
L 197.792747 108.752564 
L 197.876184 108.628087 
L 198.015246 108.545103 
L 198.098684 108.316896 
L 198.571495 108.213166 
L 198.571495 108.171674 
L 199.044306 108.067943 
L 199.099931 107.984959 
L 199.378056 107.922721 
L 199.461493 107.81899 
L 199.795242 107.736006 
L 199.850867 107.653022 
L 200.101179 107.549291 
L 200.184616 107.466307 
L 200.295866 107.383323 
L 200.379303 107.258846 
L 200.629615 107.175862 
L 200.713052 107.072132 
L 200.991177 107.009893 
L 201.046802 106.906163 
L 201.297114 106.843925 
L 201.380551 106.698702 
L 201.547426 106.615718 
L 201.575238 106.55348 
L 201.853362 106.449749 
L 201.9368 106.346019 
L 201.992424 106.325273 
L 202.048049 106.07632 
L 202.63211 105.97259 
L 202.715548 105.806621 
L 203.104922 105.702891 
L 203.188359 105.661399 
L 203.466483 105.557668 
L 203.522108 105.474684 
L 203.967107 105.370953 
L 203.967107 105.308715 
L 204.467731 105.225731 
L 204.551168 105.142747 
L 204.80148 105.080508 
L 204.857105 104.997524 
L 205.218667 104.893794 
L 205.302104 104.810809 
L 205.552416 104.748571 
L 205.608041 104.582603 
L 205.747103 104.478872 
L 205.774916 104.395888 
L 206.136477 104.354396 
L 206.136477 104.271411 
L 206.943038 104.167681 
L 206.97085 104.043205 
L 207.332412 103.96022 
L 207.415849 103.85649 
L 207.721786 103.794252 
L 207.749598 103.690521 
L 207.944285 103.607537 
L 207.972098 103.48306 
L 208.194597 103.37933 
L 208.278035 103.317092 
L 208.361472 103.296346 
L 208.361472 103.171869 
L 208.695221 103.068139 
L 208.750846 103.026647 
L 209.446157 102.922916 
L 209.446157 102.90217 
L 209.835531 102.79844 
L 209.918968 102.756948 
L 210.336155 102.653217 
L 210.363967 102.590979 
L 210.753341 102.487249 
L 210.753341 102.445757 
L 211.170528 102.342026 
L 211.226153 102.238296 
L 211.281778 102.238296 
L 211.337402 102.051581 
L 211.615527 101.947851 
L 211.698964 101.84412 
L 212.2274 101.74039 
L 212.310838 101.657406 
L 212.644587 101.574421 
L 212.644587 101.512183 
L 213.36771 101.429199 
L 213.451147 101.346215 
L 213.868334 101.242484 
L 213.951771 101.180246 
L 214.647082 101.076516 
L 214.647082 101.055769 
L 214.786144 100.993531 
L 214.813957 100.869055 
L 215.42583 100.765324 
L 215.481455 100.474879 
L 215.954266 100.391895 
L 215.954266 100.288165 
L 216.148954 100.20518 
L 216.204578 100.122196 
L 216.482703 100.059958 
L 216.538328 99.873243 
L 216.927702 99.769513 
L 217.011139 99.707275 
L 217.48395 99.603544 
L 217.539575 99.458322 
L 217.8177 99.354591 
L 217.8177 99.333845 
L 218.401761 99.230115 
L 218.485198 99.188623 
L 218.596448 99.084892 
L 218.62426 99.0434 
L 219.041447 98.93967 
L 219.041447 98.918924 
L 219.403008 98.815193 
L 219.458633 98.732209 
L 219.708945 98.649225 
L 219.708945 98.607732 
L 220.042694 98.524748 
L 220.098319 98.441764 
L 220.432068 98.338033 
L 220.432068 98.296541 
L 220.710193 98.213557 
L 220.79363 98.089081 
L 220.932692 97.98535 
L 221.01613 97.798635 
L 221.266441 97.694905 
L 221.266441 97.653413 
L 221.544566 97.549683 
L 221.600191 97.466698 
L 221.878315 97.362968 
L 221.906127 97.259237 
L 222.156439 97.176253 
L 222.212064 97.114015 
L 222.768313 97.010285 
L 222.768313 96.989538 
L 223.185499 96.885808 
L 223.268937 96.82357 
L 223.630498 96.719839 
L 223.658311 96.678347 
L 223.99206 96.595363 
L 224.075497 96.491633 
L 224.437059 96.387902 
L 224.492684 96.325664 
L 224.882058 96.221934 
L 224.965495 96.118203 
L 225.632994 96.014473 
L 225.632994 95.993727 
L 225.883306 95.910742 
L 225.966743 95.807012 
L 226.383929 95.724028 
L 226.383929 95.620297 
L 226.717679 95.516567 
L 226.801116 95.350598 
L 227.218302 95.246868 
L 227.30174 95.163884 
L 227.440802 95.060153 
L 227.440802 95.039407 
L 227.552052 95.039407 
L 227.635489 94.852693 
L 227.885801 94.748962 
L 227.885801 94.728216 
L 228.191738 94.624486 
L 228.21955 94.582994 
L 228.803611 94.500009 
L 228.859236 94.313295 
L 229.165173 94.271802 
L 229.192985 94.168072 
L 229.415485 94.064342 
L 229.498922 94.002103 
L 229.832671 93.898373 
L 229.888296 93.856881 
L 230.16642 93.753151 
L 230.249858 93.64942 
L 230.750482 93.54569 
L 230.778294 93.504198 
L 231.084231 93.441959 
L 231.112043 93.358975 
L 231.501417 93.275991 
L 231.501417 93.234499 
L 231.946416 93.130768 
L 231.946416 93.06853 
L 232.697352 92.9648 
L 232.780789 92.881815 
L 232.975476 92.798831 
L 232.975476 92.736593 
L 233.337038 92.632862 
L 233.36485 92.59137 
L 233.726412 92.48764 
L 233.754224 92.425402 
L 234.310473 92.321671 
L 234.366098 92.280179 
L 234.811097 92.176449 
L 234.866722 92.11421 
L 235.172659 92.01048 
L 235.256096 91.927496 
L 235.53422 91.823765 
L 235.589845 91.782273 
L 236.007032 91.678543 
L 236.007032 91.657797 
L 236.396406 91.554066 
L 236.396406 91.53332 
L 236.730155 91.42959 
L 236.757967 91.388098 
L 237.425466 91.284367 
L 237.453278 91.201383 
L 237.92609 91.097653 
L 237.92609 91.076907 
L 238.482338 90.973176 
L 238.565776 90.8487 
L 238.8439 90.807208 
L 238.8439 90.724223 
L 239.344524 90.641239 
L 239.344524 90.599747 
L 239.845148 90.496016 
L 239.928585 90.454524 
L 240.317959 90.37154 
L 240.401396 90.184825 
L 240.651708 90.081095 
L 240.651708 90.039603 
L 240.985457 89.935872 
L 241.041082 89.873634 
L 241.486081 89.79065 
L 241.486081 89.749158 
L 242.15358 89.666173 
L 242.237017 89.583189 
L 242.542954 89.479459 
L 242.542954 89.41722 
L 243.07139 89.334236 
L 243.099202 89.168268 
L 243.655451 89.064537 
L 243.683263 88.981553 
L 244.183887 88.877822 
L 244.183887 88.83633 
L 244.767948 88.7326 
L 244.851386 88.670362 
L 244.962635 88.608123 
L 245.01826 88.483647 
L 245.324197 88.379917 
L 245.324197 88.359171 
L 245.824821 88.25544 
L 245.852633 88.213948 
L 246.130758 88.110218 
L 246.214195 88.006487 
L 246.714819 87.902757 
L 246.770444 87.819773 
L 247.020756 87.716042 
L 247.020756 87.67455 
L 247.29888 87.57082 
L 247.29888 87.550074 
L 247.549192 87.446343 
L 247.549192 87.404851 
L 248.077628 87.321867 
L 248.161065 87.218136 
L 248.43919 87.114406 
L 248.522627 87.031422 
L 248.800751 86.927691 
L 248.800751 86.906945 
L 249.24575 86.803215 
L 249.24575 86.782469 
L 249.885436 86.678738 
L 249.941061 86.429785 
L 250.219186 86.346801 
L 250.246998 86.243071 
L 250.747622 86.160086 
L 250.747622 86.077102 
L 251.081371 85.973372 
L 251.081371 85.952626 
L 251.776682 85.848895 
L 251.860119 85.807403 
L 252.44418 85.724419 
L 252.499805 85.662181 
L 252.861367 85.55845 
L 252.916992 85.516958 
L 253.139491 85.413228 
L 253.222928 85.371736 
L 253.417615 85.288751 
L 253.417615 85.226513 
L 254.001677 85.122783 
L 254.029489 85.060544 
L 254.557925 84.956814 
L 254.585738 84.915322 
L 255.420111 84.832338 
L 255.475736 84.749353 
L 255.781672 84.666369 
L 255.781672 84.624877 
L 256.115422 84.521146 
L 256.198859 84.438162 
L 256.67167 84.334432 
L 256.67167 84.29294 
L 256.866357 84.209955 
L 256.949795 84.106225 
L 257.311356 84.023241 
L 257.311356 83.981748 
L 257.81198 83.878018 
L 257.81198 83.857272 
L 258.674166 83.753542 
L 258.72979 83.649811 
L 258.95229 83.546081 
L 259.007915 83.504589 
L 259.452914 83.400858 
L 259.508539 83.359366 
L 259.8701 83.255636 
L 259.8701 83.23489 
L 260.315099 83.131159 
L 260.398536 83.048175 
L 260.565411 82.944445 
L 260.621036 82.86146 
L 260.954785 82.75773 
L 261.038222 82.653999 
L 261.288534 82.550269 
L 261.344159 82.467285 
L 261.92822 82.363554 
L 261.92822 82.342808 
L 262.540094 82.259824 
L 262.540094 82.218332 
L 263.263217 82.135348 
L 263.263217 82.093855 
L 263.541342 81.990125 
L 263.624779 81.948633 
L 263.763841 81.844902 
L 263.763841 81.824156 
L 264.09759 81.720426 
L 264.181028 81.658188 
L 264.459152 81.554457 
L 264.514777 81.450727 
L 264.820714 81.346997 
L 264.848526 81.305505 
L 265.12665 81.201774 
L 265.12665 81.160282 
L 265.738524 81.077298 
L 265.821961 80.952821 
L 266.072273 80.869837 
L 266.15571 80.724614 
L 266.461647 80.662376 
L 266.545084 80.579392 
L 266.962271 80.475661 
L 267.017896 80.434169 
L 267.574145 80.330439 
L 267.574145 80.309693 
L 268.019143 80.205962 
L 268.102581 80.122978 
L 268.825704 80.019248 
L 268.825704 79.998502 
L 269.381953 79.915517 
L 269.46539 79.853279 
L 269.799139 79.770295 
L 269.882577 79.666564 
L 270.244138 79.604326 
L 270.271951 79.500596 
L 270.6057 79.396865 
L 270.661325 79.355373 
L 271.050699 79.251643 
L 271.134136 79.189405 
L 271.857259 79.085674 
L 271.885072 79.044182 
L 272.357883 78.940452 
L 272.441321 78.89896 
L 273.220069 78.836721 
L 273.247881 78.753737 
L 273.971004 78.650007 
L 273.998817 78.608515 
L 274.360378 78.52553 
L 274.443816 78.401054 
L 274.888815 78.297323 
L 274.888815 78.255831 
L 275.222564 78.152101 
L 275.278189 78.110609 
L 275.723188 78.006878 
L 275.723188 77.986132 
L 276.223812 77.903148 
L 276.223812 77.84091 
L 276.78006 77.737179 
L 276.863498 77.674941 
L 277.503184 77.571211 
L 277.503184 77.550465 
L 277.836933 77.446734 
L 277.892558 77.405242 
L 278.281932 77.301512 
L 278.281932 77.280766 
L 278.504431 77.177035 
L 278.587869 77.073305 
L 278.754743 77.073305 
L 278.810368 76.907336 
L 279.144117 76.824352 
L 279.144117 76.78286 
L 279.644741 76.679129 
L 279.672553 76.637637 
L 280.367864 76.533907 
L 280.395677 76.492415 
L 280.951925 76.430176 
L 281.00755 76.347192 
L 281.424737 76.243462 
L 281.508174 76.077493 
L 281.841923 75.973763 
L 281.925361 75.932271 
L 282.25911 75.82854 
L 282.342547 75.704064 
L 283.093483 75.600333 
L 283.093483 75.558841 
L 283.39942 75.455111 
L 283.39942 75.434365 
L 283.927856 75.330634 
L 284.011293 75.24765 
L 284.31723 75.14392 
L 284.345042 75.081682 
L 284.762229 74.998697 
L 284.762229 74.936459 
L 285.151603 74.832729 
L 285.23504 74.708252 
L 285.34629 74.646014 
L 285.34629 74.583776 
L 285.874726 74.480045 
L 285.874726 74.397061 
L 286.570037 74.293331 
L 286.570037 74.272585 
L 286.903786 74.1896 
L 286.903786 74.127362 
L 287.154098 74.023632 
L 287.237536 73.940647 
L 287.487847 73.899155 
L 287.571285 73.774679 
L 287.988471 73.670948 
L 287.988471 73.650202 
L 288.461283 73.546472 
L 288.461283 73.484234 
L 288.989719 73.380503 
L 289.045344 73.318265 
L 289.379093 73.214535 
L 289.46253 73.152296 
L 289.824092 73.069312 
L 289.851904 73.007074 
L 290.408153 72.92409 
L 290.408153 72.882597 
L 291.075652 72.778867 
L 291.159089 72.737375 
L 291.798775 72.633644 
L 291.882212 72.529914 
L 292.215961 72.426184 
L 292.271586 72.384692 
L 292.577523 72.280961 
L 292.66096 72.239469 
L 292.855647 72.135739 
L 292.855647 72.114993 
L 293.467521 72.011262 
L 293.467521 71.990516 
L 293.856895 71.886786 
L 293.856895 71.845294 
L 294.190644 71.762309 
L 294.190644 71.720817 
L 295.025017 71.637833 
L 295.108454 71.513356 
L 295.497829 71.409626 
L 295.581266 71.368134 
L 296.109702 71.285149 
L 296.109702 71.243657 
L 296.805013 71.139927 
L 296.805013 71.098435 
L 297.583761 70.994704 
L 297.611574 70.953212 
L 297.945323 70.849482 
L 297.945323 70.828736 
L 298.418134 70.725005 
L 298.473759 70.683513 
L 299.335944 70.600529 
L 299.419382 70.517545 
L 299.753131 70.413814 
L 299.753131 70.372322 
L 300.30938 70.268592 
L 300.392817 70.2271 
L 301.060315 70.123369 
L 301.060315 70.081877 
L 302.033751 69.978147 
L 302.033751 69.957401 
L 302.423125 69.874416 
L 302.47875 69.812178 
L 302.923749 69.708448 
L 303.007186 69.625463 
L 303.591247 69.521733 
L 303.591247 69.500987 
L 304.42562 69.418003 
L 304.509057 69.335018 
L 305.009681 69.231288 
L 305.009681 69.189796 
L 305.927491 69.086065 
L 306.010929 69.023827 
L 306.511553 68.920097 
L 306.59499 68.79562 
L 307.123426 68.733382 
L 307.206863 68.629652 
L 307.7353 68.525921 
L 307.7353 68.505175 
L 308.597485 68.401445 
L 308.597485 68.380699 
L 309.264984 68.276968 
L 309.264984 68.256222 
L 309.654358 68.152492 
L 309.737795 68.048762 
L 310.377481 67.945031 
L 310.433106 67.882793 
L 311.128417 67.779063 
L 311.211854 67.716824 
L 311.601228 67.63384 
L 311.601228 67.592348 
L 311.85154 67.509364 
L 311.934977 67.405633 
L 312.8806 67.301903 
L 312.8806 67.281157 
L 313.965285 67.177426 
L 313.965285 67.15668 
L 314.465909 67.05295 
L 314.521534 66.990712 
L 315.578406 66.886981 
L 315.578406 66.866235 
L 316.07903 66.783251 
L 316.134655 66.721013 
L 317.135902 66.617282 
L 317.135902 66.57579 
L 317.998088 66.47206 
L 318.0259 66.430568 
L 318.443087 66.347583 
L 318.443087 66.306091 
L 319.38871 66.243853 
L 319.38871 66.181615 
L 320.056208 66.077884 
L 320.08402 66.015646 
L 321.44683 65.911916 
L 321.44683 65.89117 
L 321.669329 65.828931 
L 321.669329 65.745947 
L 322.420265 65.642217 
L 322.47589 65.600724 
L 323.671824 65.496994 
L 323.699637 65.434756 
L 324.255886 65.331025 
L 324.255886 65.310279 
L 325.062446 65.206549 
L 325.062446 65.185803 
L 325.618695 65.123565 
L 325.618695 65.061326 
L 326.091506 64.957596 
L 326.091506 64.93685 
L 327.927127 64.83312 
L 327.927127 64.812374 
L 328.65025 64.708643 
L 328.65025 64.687897 
L 329.150874 64.584167 
L 329.150874 64.563421 
L 329.512436 64.45969 
L 329.512436 64.438944 
L 330.875245 64.335214 
L 330.903057 64.293722 
L 331.459306 64.189991 
L 331.514931 64.148499 
L 331.904305 64.044769 
L 331.987742 64.003277 
L 332.460554 63.899546 
L 332.543991 63.816562 
L 333.267114 63.754324 
L 333.322739 63.671339 
L 334.212737 63.567609 
L 334.296174 63.484625 
L 335.26961 63.380894 
L 335.297422 63.318656 
L 335.603359 63.235672 
L 335.686796 63.152687 
L 337.10523 63.048957 
L 337.133043 62.986719 
L 337.522417 62.903734 
L 337.522417 62.862242 
L 338.301165 62.758512 
L 338.301165 62.737766 
L 338.579289 62.654782 
L 338.579289 62.613289 
L 339.218975 62.509559 
L 339.218975 62.488813 
L 339.858661 62.385083 
L 339.858661 62.364337 
L 340.331473 62.260606 
L 340.331473 62.219114 
L 341.916781 62.115384 
L 341.916781 62.094638 
L 342.862404 61.990907 
L 342.862404 61.970161 
L 343.50209 61.866431 
L 343.50209 61.845685 
L 344.336463 61.741954 
L 344.336463 61.700462 
L 345.337711 61.596732 
L 345.365523 61.55524 
L 346.283334 61.451509 
L 346.283334 61.430763 
L 346.867395 61.368525 
L 346.950832 61.285541 
L 347.896455 61.18181 
L 347.924267 61.140318 
L 348.258016 61.036588 
L 348.313641 60.953603 
L 348.814265 60.849873 
L 348.842078 60.808381 
L 349.89895 60.70465 
L 349.926762 60.663158 
L 350.649886 60.559428 
L 350.733323 60.49719 
L 351.984883 60.393459 
L 351.984883 60.351967 
L 352.791443 60.248237 
L 352.791443 60.227491 
L 354.098628 60.12376 
L 354.182065 60.061522 
L 354.849563 59.957792 
L 354.877376 59.916299 
L 355.711749 59.812569 
L 355.739561 59.771077 
L 356.267997 59.667347 
L 356.323622 59.625854 
L 356.991121 59.522124 
L 357.046746 59.459886 
L 357.992368 59.356155 
L 358.075806 59.314663 
L 358.548617 59.210933 
L 358.548617 59.190187 
L 359.299553 59.107202 
L 359.299553 59.044964 
L 359.939239 58.941234 
L 360.022676 58.899742 
L 360.578925 58.796011 
L 360.606737 58.754519 
L 361.274236 58.650789 
L 361.274236 58.630043 
L 361.858297 58.567804 
L 361.858297 58.505566 
L 362.386733 58.401836 
L 362.386733 58.38109 
L 363.72173 58.298105 
L 363.805167 58.235867 
L 364.194541 58.173629 
L 364.222354 58.090645 
L 365.028914 57.986914 
L 365.084539 57.945422 
L 366.197037 57.841692 
L 366.197037 57.820946 
L 366.864535 57.717215 
L 366.864535 57.696469 
L 367.504221 57.592739 
L 367.532033 57.530501 
L 368.338594 57.42677 
L 368.422031 57.364532 
L 368.839218 57.281548 
L 368.839218 57.240056 
L 369.729216 57.157071 
L 369.729216 57.115579 
L 370.841713 57.011849 
L 370.841713 56.991103 
L 371.592649 56.887372 
L 371.592649 56.866626 
L 373.177958 56.762896 
L 373.177958 56.74215 
L 374.23483 56.638419 
L 374.262642 56.596927 
L 376.348575 56.493197 
L 376.348575 56.472451 
L 377.21076 56.36872 
L 377.21076 56.347974 
L 378.267633 56.244244 
L 378.267633 56.202752 
L 379.435755 56.099021 
L 379.463568 56.057529 
L 380.297941 55.953799 
L 380.297941 55.933053 
L 381.466063 55.829322 
L 381.466063 55.808576 
L 383.301684 55.704846 
L 383.301684 55.6841 
L 384.275119 55.580369 
L 384.275119 55.538877 
L 386.194177 55.435147 
L 386.277614 55.393655 
L 388.085422 55.289924 
L 388.085422 55.269178 
L 388.808546 55.165448 
L 388.808546 55.144702 
L 390.699791 55.040971 
L 390.699791 55.020225 
L 392.0626 54.916495 
L 392.0626 54.895749 
L 393.036036 54.792019 
L 393.036036 54.771272 
L 395.205405 54.667542 
L 395.233218 54.62605 
L 396.29009 54.52232 
L 396.29009 54.460081 
L 397.513838 54.377097 
L 397.597275 54.169636 
L 397.625087 54.169636 
L 397.708525 53.962175 
L 397.847587 53.879191 
L 397.875399 53.816953 
L 398.042274 53.796207 
L 398.125711 53.67173 
L 398.487273 53.568 
L 398.487273 53.568 
" style="fill:none;stroke:#1f77b4;stroke-linecap:square;stroke-opacity:0.8;stroke-width:1.5;"/>
   </g>
   <g id="patch_3">
    <path d="M 57.6 307.584 
L 57.6 41.472 
" style="fill:none;stroke:#000000;stroke-linecap:square;stroke-linejoin:miter;stroke-width:0.8;"/>
   </g>
   <g id="patch_4">
    <path d="M 414.72 307.584 
L 414.72 41.472 
" style="fill:none;stroke:#000000;stroke-linecap:square;stroke-linejoin:miter;stroke-width:0.8;"/>
   </g>
   <g id="patch_5">
    <path d="M 57.6 307.584 
L 414.72 307.584 
" style="fill:none;stroke:#000000;stroke-linecap:square;stroke-linejoin:miter;stroke-width:0.8;"/>
   </g>
   <g id="patch_6">
    <path d="M 57.6 41.472 
L 414.72 41.472 
" style="fill:none;stroke:#000000;stroke-linecap:square;stroke-linejoin:miter;stroke-width:0.8;"/>
   </g>
   <g id="legend_1">
    <g id="patch_7">
     <path d="M 213.854375 302.584 
L 407.72 302.584 
Q 409.72 302.584 409.72 300.584 
L 409.72 286.905875 
Q 409.72 284.905875 407.72 284.905875 
L 213.854375 284.905875 
Q 211.854375 284.905875 211.854375 286.905875 
L 211.854375 300.584 
Q 211.854375 302.584 213.854375 302.584 
z
" style="fill:#ffffff;opacity:0.8;stroke:#cccccc;stroke-linejoin:miter;"/>
    </g>
    <g id="line2d_14">
     <path d="M 215.854375 293.004312 
L 235.854375 293.004312 
" style="fill:none;stroke:#1f77b4;stroke-linecap:square;stroke-opacity:0.8;stroke-width:1.5;"/>
    </g>
    <g id="line2d_15"/>
    <g id="text_15">
     <!-- LogisticRegression (AUC = 0.77) -->
     <g transform="translate(243.854375 296.504312)scale(0.1 -0.1)">
      <defs>
       <path d="M 9.8125 72.90625 
L 19.671875 72.90625 
L 19.671875 8.296875 
L 55.171875 8.296875 
L 55.171875 0 
L 9.8125 0 
z
" id="DejaVuSans-76"/>
       <path d="M 45.40625 27.984375 
Q 45.40625 37.75 41.375 43.109375 
Q 37.359375 48.484375 30.078125 48.484375 
Q 22.859375 48.484375 18.828125 43.109375 
Q 14.796875 37.75 14.796875 27.984375 
Q 14.796875 18.265625 18.828125 12.890625 
Q 22.859375 7.515625 30.078125 7.515625 
Q 37.359375 7.515625 41.375 12.890625 
Q 45.40625 18.265625 45.40625 27.984375 
z
M 54.390625 6.78125 
Q 54.390625 -7.171875 48.1875 -13.984375 
Q 42 -20.796875 29.203125 -20.796875 
Q 24.46875 -20.796875 20.265625 -20.09375 
Q 16.0625 -19.390625 12.109375 -17.921875 
L 12.109375 -9.1875 
Q 16.0625 -11.328125 19.921875 -12.34375 
Q 23.78125 -13.375 27.78125 -13.375 
Q 36.625 -13.375 41.015625 -8.765625 
Q 45.40625 -4.15625 45.40625 5.171875 
L 45.40625 9.625 
Q 42.625 4.78125 38.28125 2.390625 
Q 33.9375 0 27.875 0 
Q 17.828125 0 11.671875 7.65625 
Q 5.515625 15.328125 5.515625 27.984375 
Q 5.515625 40.671875 11.671875 48.328125 
Q 17.828125 56 27.875 56 
Q 33.9375 56 38.28125 53.609375 
Q 42.625 51.21875 45.40625 46.390625 
L 45.40625 54.6875 
L 54.390625 54.6875 
z
" id="DejaVuSans-103"/>
       <path d="M 48.78125 52.59375 
L 48.78125 44.1875 
Q 44.96875 46.296875 41.140625 47.34375 
Q 37.3125 48.390625 33.40625 48.390625 
Q 24.65625 48.390625 19.8125 42.84375 
Q 14.984375 37.3125 14.984375 27.296875 
Q 14.984375 17.28125 19.8125 11.734375 
Q 24.65625 6.203125 33.40625 6.203125 
Q 37.3125 6.203125 41.140625 7.25 
Q 44.96875 8.296875 48.78125 10.40625 
L 48.78125 2.09375 
Q 45.015625 0.34375 40.984375 -0.53125 
Q 36.96875 -1.421875 32.421875 -1.421875 
Q 20.0625 -1.421875 12.78125 6.34375 
Q 5.515625 14.109375 5.515625 27.296875 
Q 5.515625 40.671875 12.859375 48.328125 
Q 20.21875 56 33.015625 56 
Q 37.15625 56 41.109375 55.140625 
Q 45.0625 54.296875 48.78125 52.59375 
z
" id="DejaVuSans-99"/>
       <path d="M 54.890625 33.015625 
L 54.890625 0 
L 45.90625 0 
L 45.90625 32.71875 
Q 45.90625 40.484375 42.875 44.328125 
Q 39.84375 48.1875 33.796875 48.1875 
Q 26.515625 48.1875 22.3125 43.546875 
Q 18.109375 38.921875 18.109375 30.90625 
L 18.109375 0 
L 9.078125 0 
L 9.078125 54.6875 
L 18.109375 54.6875 
L 18.109375 46.1875 
Q 21.34375 51.125 25.703125 53.5625 
Q 30.078125 56 35.796875 56 
Q 45.21875 56 50.046875 50.171875 
Q 54.890625 44.34375 54.890625 33.015625 
z
" id="DejaVuSans-110"/>
       <path d="M 34.1875 63.1875 
L 20.796875 26.90625 
L 47.609375 26.90625 
z
M 28.609375 72.90625 
L 39.796875 72.90625 
L 67.578125 0 
L 57.328125 0 
L 50.6875 18.703125 
L 17.828125 18.703125 
L 11.1875 0 
L 0.78125 0 
z
" id="DejaVuSans-65"/>
       <path d="M 8.6875 72.90625 
L 18.609375 72.90625 
L 18.609375 28.609375 
Q 18.609375 16.890625 22.84375 11.734375 
Q 27.09375 6.59375 36.625 6.59375 
Q 46.09375 6.59375 50.34375 11.734375 
Q 54.59375 16.890625 54.59375 28.609375 
L 54.59375 72.90625 
L 64.5 72.90625 
L 64.5 27.390625 
Q 64.5 13.140625 57.4375 5.859375 
Q 50.390625 -1.421875 36.625 -1.421875 
Q 22.796875 -1.421875 15.734375 5.859375 
Q 8.6875 13.140625 8.6875 27.390625 
z
" id="DejaVuSans-85"/>
       <path d="M 64.40625 67.28125 
L 64.40625 56.890625 
Q 59.421875 61.53125 53.78125 63.8125 
Q 48.140625 66.109375 41.796875 66.109375 
Q 29.296875 66.109375 22.65625 58.46875 
Q 16.015625 50.828125 16.015625 36.375 
Q 16.015625 21.96875 22.65625 14.328125 
Q 29.296875 6.6875 41.796875 6.6875 
Q 48.140625 6.6875 53.78125 8.984375 
Q 59.421875 11.28125 64.40625 15.921875 
L 64.40625 5.609375 
Q 59.234375 2.09375 53.4375 0.328125 
Q 47.65625 -1.421875 41.21875 -1.421875 
Q 24.65625 -1.421875 15.125 8.703125 
Q 5.609375 18.84375 5.609375 36.375 
Q 5.609375 53.953125 15.125 64.078125 
Q 24.65625 74.21875 41.21875 74.21875 
Q 47.75 74.21875 53.53125 72.484375 
Q 59.328125 70.75 64.40625 67.28125 
z
" id="DejaVuSans-67"/>
       <path d="M 10.59375 45.40625 
L 73.1875 45.40625 
L 73.1875 37.203125 
L 10.59375 37.203125 
z
M 10.59375 25.484375 
L 73.1875 25.484375 
L 73.1875 17.1875 
L 10.59375 17.1875 
z
" id="DejaVuSans-61"/>
       <path d="M 8.203125 72.90625 
L 55.078125 72.90625 
L 55.078125 68.703125 
L 28.609375 0 
L 18.3125 0 
L 43.21875 64.59375 
L 8.203125 64.59375 
z
" id="DejaVuSans-55"/>
      </defs>
      <use xlink:href="#DejaVuSans-76"/>
      <use x="53.962891" xlink:href="#DejaVuSans-111"/>
      <use x="115.144531" xlink:href="#DejaVuSans-103"/>
      <use x="178.621094" xlink:href="#DejaVuSans-105"/>
      <use x="206.404297" xlink:href="#DejaVuSans-115"/>
      <use x="258.503906" xlink:href="#DejaVuSans-116"/>
      <use x="297.712891" xlink:href="#DejaVuSans-105"/>
      <use x="325.496094" xlink:href="#DejaVuSans-99"/>
      <use x="380.476562" xlink:href="#DejaVuSans-82"/>
      <use x="445.458984" xlink:href="#DejaVuSans-101"/>
      <use x="506.982422" xlink:href="#DejaVuSans-103"/>
      <use x="570.458984" xlink:href="#DejaVuSans-114"/>
      <use x="609.322266" xlink:href="#DejaVuSans-101"/>
      <use x="670.845703" xlink:href="#DejaVuSans-115"/>
      <use x="722.945312" xlink:href="#DejaVuSans-115"/>
      <use x="775.044922" xlink:href="#DejaVuSans-105"/>
      <use x="802.828125" xlink:href="#DejaVuSans-111"/>
      <use x="864.009766" xlink:href="#DejaVuSans-110"/>
      <use x="927.388672" xlink:href="#DejaVuSans-32"/>
      <use x="959.175781" xlink:href="#DejaVuSans-40"/>
      <use x="998.189453" xlink:href="#DejaVuSans-65"/>
      <use x="1066.597656" xlink:href="#DejaVuSans-85"/>
      <use x="1139.791016" xlink:href="#DejaVuSans-67"/>
      <use x="1209.615234" xlink:href="#DejaVuSans-32"/>
      <use x="1241.402344" xlink:href="#DejaVuSans-61"/>
      <use x="1325.191406" xlink:href="#DejaVuSans-32"/>
      <use x="1356.978516" xlink:href="#DejaVuSans-48"/>
      <use x="1420.601562" xlink:href="#DejaVuSans-46"/>
      <use x="1452.388672" xlink:href="#DejaVuSans-55"/>
      <use x="1516.011719" xlink:href="#DejaVuSans-55"/>
      <use x="1579.634766" xlink:href="#DejaVuSans-41"/>
     </g>
    </g>
   </g>
  </g>
 </g>
 <defs>
  <clipPath id="p51c0860b6c">
   <rect height="266.112" width="357.12" x="57.6" y="41.472"/>
  </clipPath>
 </defs>
</svg>
